<svg width="662" height="413" viewBox="0 0 662 413" fill="none" xmlns="http://www.w3.org/2000/svg">
<g clip-path="url(#clip0_15005_3296)">
<g opacity="0.2">
<path d="M131.7 121.8H92.4V161.1H131.7V121.8Z" fill="#D9D9D9"/>
<path opacity="0.5" d="M131.7 82.5H92.4V121.8H131.7V82.5Z" fill="#D9D9D9"/>
<path opacity="0.9" d="M92.4 82.5H53.1V121.8H92.4V82.5Z" fill="#D9D9D9"/>
<path opacity="0.9" d="M131.7 43.2H92.4V82.5H131.7V43.2Z" fill="#D9D9D9"/>
<path opacity="0.5" d="M131.7 3.9H92.4V43.2H131.7V3.9Z" fill="#D9D9D9"/>
<path opacity="0.9" d="M171 3.9H131.7V43.2H171V3.9Z" fill="#D9D9D9"/>
<path opacity="0.9" d="M55.3 121.8H16V161.1H55.3V121.8Z" fill="#D9D9D9"/>
</g>
<g opacity="0.2">
<path d="M621.7 333.5H582.4V372.8H621.7V333.5Z" fill="#D9D9D9" fill-opacity="0.5"/>
<path d="M621.7 254.9H582.4V294.2H621.7V254.9Z" fill="#D9D9D9" fill-opacity="0.5"/>
<path d="M621.7 372.8H582.4V412.1H621.7V372.8Z" fill="#D9D9D9" fill-opacity="0.0666667"/>
<path d="M582.4 333.5H543.1V372.8H582.4V333.5Z" fill="#D9D9D9" fill-opacity="0.9"/>
<path d="M621.7 294.2H582.4V333.5H621.7V294.2Z" fill="#D9D9D9" fill-opacity="0.9"/>
<path d="M661 254.9H621.7V294.2H661V254.9Z" fill="#D9D9D9" fill-opacity="0.9"/>
<path d="M545.3 372.8H506V412.1H545.3V372.8Z" fill="#D9D9D9" fill-opacity="0.9"/>
</g>
<path d="M358.7 276.1C358.9 276.8 359.2 277.7 359.6 278.9C360.3 281.3 361.3 284.8 362.2 289C364.1 297.2 366.1 308.1 366.4 318.8L344.6 332.2L345 333.1L366.2 327.4C365.7 333.7 364.4 339.5 362 344.5L361.7 345C355.6 356.7 348 362.8 339.8 364.8C331.9 366.7 323.4 364.9 315 360.7L314.2 360.3C305.6 355.8 298.9 349.7 295.9 341.8C293 334.2 293.5 324.9 299.1 313.6L299.7 312.5C302.7 306.7 308 301.4 314.1 296.8C320.2 292.2 327.3 288.3 333.9 285.1C340.6 281.9 346.8 279.5 351.4 277.8C353.7 277 355.6 276.4 356.9 275.9C357.6 275.7 358.1 275.5 358.4 275.4C358.4 275.5 358.5 275.7 358.6 275.9L358.7 276.1Z" stroke="#9B6AF1"/>
<path d="M359.8 274.5H359.9L359.8 275.1C359.2 277.7 357.6 284.7 354.9 293.7L354.5 294.9C353 299.7 351.3 305 349.2 310.4C348.7 311.8 348.2 313.1 347.6 314.4C347.6 314.6 347.4 314.8 347.4 315L347.2 315.6C345 321.2 342.6 326.3 340.2 330.9L339.6 332.1C332.5 345.6 324.7 354.8 316.5 359.9C316.5 359.8 316.5 359.8 316.5 359.8C325.6 354.1 333.2 343.7 339.4 332C339.6 331.6 339.8 331.2 340 330.8C342.6 325.8 345 320.5 347.1 315.3L347.6 314.1C350.3 307.2 352.6 300.5 354.4 294.6C354.5 294.2 354.7 293.8 354.8 293.3C357.8 283.5 359.4 276.1 359.8 274.2H359.9L359.8 274.5Z" fill="white"/>
<path d="M347.6 314.4C348.2 313.1 348.7 311.8 349.2 310.4C351.3 305 353 299.7 354.5 294.9L354.9 293.7C357.6 284.7 359.2 277.7 359.8 275.1L359.9 274.5H359.8L359.9 274.2H359.8C359.4 276.1 357.8 283.5 354.8 293.3C354.7 293.8 354.5 294.2 354.4 294.6C352.6 300.5 350.3 307.2 347.6 314.1L347.1 315.3C345 320.5 342.6 325.8 340 330.8C339.8 331.2 339.6 331.6 339.4 332C333.2 343.7 325.6 354.1 316.5 359.8C316.5 359.8 316.5 359.8 316.5 359.9C324.7 354.8 332.5 345.6 339.6 332.1L340.2 330.9C342.6 326.3 345 321.2 347.2 315.6L347.4 315C347.4 314.8 347.6 314.6 347.6 314.4ZM347.6 314.4L348.1 314.6" stroke="#9B6AF1"/>
<path d="M338.8 282.5C341.9 286.6 346 290 350.5 292.4C351.6 293 352.7 293.5 353.9 294C354.1 294 354.3 294.2 354.5 294.2L355.1 294.4C358.3 295.5 361.6 296.2 364.9 296.4C364.9 296.5 364.9 296.6 364.9 296.7C361.7 296.5 358.6 295.9 355.6 294.9L355 294.7L354.4 294.5L353.8 294.3L352.9 293.9C352.3 293.6 351.7 293.4 351.1 293.1L350.2 292.7C345.6 290.3 341.5 286.9 338.3 282.7C338.3 282.7 338.5 282.7 338.6 282.6L338.8 282.5Z" fill="white" stroke="#9B6AF1"/>
<path d="M327.6 288C328.4 293.3 330.3 298.3 333.3 302.7L333.6 303.1C336.8 307.7 341 311.4 345.9 314.1L346.4 314.4C346.5 314.4 346.6 314.5 346.8 314.6C347 314.7 347.2 314.8 347.4 314.9L348 315.2C354.1 318 360.8 319 367.5 318.2C367.5 318.3 367.5 318.4 367.5 318.5C360.8 319.4 354.1 318.3 347.9 315.5C347.7 315.5 347.5 315.3 347.3 315.2L346.7 314.9L346.2 314.7C341.3 312.1 337 308.5 333.8 304L333.5 303.6C330.3 299 328.2 293.8 327.3 288.2C327.3 288.2 327.5 288.1 327.6 288Z" fill="white" stroke="#9B6AF1"/>
<path d="M319.2 293.1C318 300.1 319 307.3 321.9 313.7L322.2 314.4C325.4 321.2 330.7 326.7 337.2 330.3L337.8 330.6C338 330.7 338.2 330.8 338.5 330.9L339.2 331.2C339.4 331.2 339.6 331.4 339.8 331.5L340.4 331.8C348.7 335.3 357.9 335.6 366.4 332.5C366.4 332.6 366.4 332.7 366.4 332.8C357.9 335.8 348.6 335.5 340.3 332C340.1 332 339.9 331.8 339.7 331.7L339.1 331.4L338.5 331.1L337.9 330.8C331.4 327.4 326.1 322.1 322.7 315.6L322.4 315C319.1 308.3 317.9 300.7 319.1 293.3C319.2 293.3 319.3 293.1 319.4 293.1H319.2Z" fill="white" stroke="#9B6AF1"/>
<path d="M87.1 277.6C87.4 277.7 88 277.9 88.6 278.1C89.9 278.5 91.8 279.1 94.1 280C98.7 281.6 105 284.1 111.6 287.3C118.3 290.5 125.3 294.4 131.4 299C137.3 303.4 142.4 308.5 145.5 314.1L145.8 314.6C151.9 326.3 152.6 336 149.6 343.9C146.7 351.5 140.3 357.5 132.1 361.9L131.3 362.3C122.7 366.8 113.9 368.8 105.7 366.8C97.8 364.9 90.4 359.1 84.4 348.1L83.8 347C81.2 342 79.8 335.9 79.3 329.5L100.5 335.2L100.9 334.3L79.1 320.9C79.4 310.2 81.3 299.3 83.3 291.1C84.3 287 85.2 283.5 85.9 281C86.3 279.8 86.6 278.8 86.8 278.2C86.8 278 86.9 277.8 87 277.7L87.1 277.6Z" stroke="#9B6AF1"/>
<path d="M86 276.5C86.4 278.3 87.9 284.9 90.5 293.8L91.1 295.7C91.2 296.1 91.3 296.5 91.5 297C93.2 302.6 95.3 308.8 97.8 315.2L98.3 316.5C98.5 316.9 98.6 317.3 98.8 317.7C100.6 322.2 102.7 326.8 104.9 331.3L105.9 333.2C105.9 333.4 106.1 333.6 106.2 333.8L106.5 334.4C112.7 346 120.3 356.4 129.4 362C129.4 362.1 129.4 362.3 129.4 362.3C121.4 357.4 113.9 348.5 106.9 335.8L106.2 334.5L105.6 333.3C103.5 329.2 101.5 324.8 99.5 320L98.7 317.9L98.5 317.3L98.3 316.7L97.5 314.7L96.7 312.7L95.9 310.7C94.4 306.6 93.1 302.7 92 299L91.4 297.2L91 296C88.6 288.1 87.1 281.8 86.3 278.5L86 277.3L85.9 276.7H86H86.1L86 276.5Z" fill="white" stroke="#9B6AF1"/>
<path d="M107.1 284.7C104.1 288.6 100.4 291.8 96.1 294.2L95.2 294.7C94.3 295.1 93.5 295.6 92.6 295.9L91.7 296.3C91.5 296.3 91.3 296.5 91.1 296.5L90.5 296.7C87.3 297.8 84 298.5 80.6 298.7C80.6 298.6 80.6 298.5 80.6 298.4C83.7 298.2 86.8 297.6 89.8 296.6L90.4 296.4C90.8 296.2 91.2 296.1 91.7 295.9C92.9 295.4 94 294.9 95.1 294.3C99.7 291.9 103.7 288.5 106.8 284.4C106.8 284.4 107 284.4 107.1 284.5V284.7Z" fill="white" stroke="#9B6AF1"/>
<path d="M118.3 290.2C117.5 295.6 115.5 300.7 112.4 305.1L112.1 305.5C108.9 310 104.7 313.7 99.9 316.4L99.4 316.7L98.9 316.9C98.5 317.1 98.1 317.3 97.7 317.5C91.6 320.3 84.8 321.3 78.1 320.5C78.1 320.4 78.1 320.3 78.1 320.2C84.7 321.1 91.5 320 97.6 317.2C98 317 98.4 316.8 98.8 316.6L99.2 316.4C104.1 313.8 108.4 310.1 111.6 305.6L111.9 305.2C115 300.7 117.1 295.5 117.9 290C117.9 290 118.1 290.1 118.2 290.2H118.3Z" fill="white" stroke="#9B6AF1"/>
<path d="M126.8 295.4C127.9 302.6 126.8 309.9 123.8 316.5L123.5 317.1C120.2 323.7 115 329.1 108.6 332.6L108 332.9C107.8 333 107.6 333.1 107.4 333.2L106.8 333.5C106.6 333.6 106.4 333.7 106.2 333.8L105.6 334.1C97.3 337.6 88 337.9 79.5 334.9C79.5 334.8 79.5 334.7 79.5 334.6C87.9 337.6 97.2 337.4 105.5 333.9C105.7 333.9 105.9 333.7 106.1 333.6L106.7 333.3C106.9 333.2 107.1 333.1 107.4 333L108.1 332.7C114.7 329.2 120.1 323.8 123.5 317.1L123.8 316.5C127 309.9 128 302.5 126.8 295.2C126.9 295.2 127 295.4 127.1 295.4H126.8Z" fill="white"/>
<path d="M123.8 316.5C126.8 309.9 127.9 302.6 126.8 295.4H127.1C127 295.4 126.9 295.2 126.8 295.2C128 302.5 127 309.9 123.8 316.5ZM123.8 316.5L123.5 317.1M123.5 317.1C120.2 323.7 115 329.1 108.6 332.6L108 332.9C107.8 333 107.6 333.1 107.4 333.2L106.8 333.5C106.6 333.6 106.4 333.7 106.2 333.8L105.6 334.1C97.3 337.6 88 337.9 79.5 334.9C79.5 334.8 79.5 334.7 79.5 334.6C87.9 337.6 97.2 337.4 105.5 333.9C105.7 333.9 105.9 333.7 106.1 333.6L106.7 333.3C106.9 333.2 107.1 333.1 107.4 333L108.1 332.7C114.7 329.2 120.1 323.8 123.5 317.1Z" stroke="#9B6AF1"/>
<path d="M187.4 315.4C188.2 315.6 189.3 316 190.7 316.5C193.4 317.5 197.2 318.9 201.1 320.8C205.1 322.7 209.2 325 212.9 327.7C216.3 330.3 219.2 333.1 221.1 336.3L221.4 336.9C225 343.9 225.4 349.6 223.6 354.2C221.9 358.7 218.2 362.2 213.3 364.8L212.8 365.1C207.7 367.8 202.5 368.9 197.7 367.8C193.1 366.7 188.7 363.3 185.1 356.8L184.8 356.2C183.3 353.3 182.5 349.8 182.2 346.1L194.6 349.4L195 348.5L182.1 340.6C182.3 334.3 183.4 327.9 184.6 323C185.2 320.5 185.7 318.5 186.2 317C186.4 316.3 186.6 315.7 186.7 315.3C186.7 315.3 186.7 315.3 186.7 315.2C186.9 315.2 187.1 315.3 187.4 315.4Z" stroke="#9B6AF1"/>
<path d="M197.2 348.1L197.6 348.8C201.9 356.9 206.5 362.4 211.5 365.5C211.5 365.5 211.6 365.5 211.7 365.6L211.9 365.3L212.1 365C206.6 361.8 202 355.5 198.3 348.5C198.2 348.3 198.1 348 197.9 347.8C196.3 344.8 195 341.7 193.7 338.6C193.7 338.4 193.5 338.1 193.4 337.9C191.8 333.8 190.4 329.8 189.4 326.3C189.4 326.1 189.2 325.8 189.2 325.6C187.4 319.6 186.4 315.1 186.2 314.2C186.2 314.1 186.2 314 186.2 314H185.8H185.4C185.4 314 185.4 314.3 185.5 314.7C185.8 316.3 186.8 320.5 188.4 325.8C188.4 326 188.5 326.3 188.6 326.5C189.5 329.4 190.5 332.5 191.7 335.8C192 336.6 192.3 337.4 192.6 338.2C192.6 338.4 192.8 338.7 192.9 338.9C194.2 342.2 195.6 345.3 197.1 348.1H197.2Z" fill="#FF5031" stroke="#9B6AF1" stroke-miterlimit="10"/>
<path d="M182.5 327C182.5 327.3 182.5 327.5 182.4 327.8C184.6 327.8 186.7 327.3 188.8 326.6C189 326.6 189.3 326.4 189.5 326.3C190.2 326 190.9 325.7 191.6 325.3C194.5 323.8 197.1 321.6 199 319C198.8 318.9 198.5 318.8 198.3 318.7C196.4 321.2 194 323.2 191.3 324.7C190.7 325 190 325.3 189.3 325.6C189.1 325.7 188.8 325.8 188.6 325.9C186.7 326.6 184.7 327 182.6 327.1L182.5 327Z" fill="#FF5031" stroke="#9B6AF1" stroke-miterlimit="10"/>
<path d="M181 340C181 340.3 181 340.5 181 340.8C185.1 341.4 189.3 340.8 193.1 339C193.3 338.9 193.6 338.8 193.8 338.6C193.8 338.6 194 338.6 194.1 338.5C197.2 336.9 199.8 334.6 201.8 331.8C203.8 329 205.1 325.7 205.6 322.3C205.4 322.2 205.1 322 204.9 321.9C204.5 325.3 203.2 328.4 201.3 331.2C199.4 334 196.8 336.2 193.8 337.8C193.8 337.8 193.7 337.8 193.6 337.9C193.4 338 193.1 338.1 192.9 338.3C189.2 340 185.1 340.6 181.1 340H181Z" fill="#FF5031" stroke="#9B6AF1" stroke-miterlimit="10"/>
<path d="M181.5 348.4C181.5 348.7 181.5 349 181.7 349.3C186.9 351.2 192.6 351 197.6 348.9C197.8 348.8 198.1 348.7 198.3 348.6C198.6 348.5 198.8 348.3 199.1 348.2C203.2 346.1 206.4 342.7 208.5 338.6C210.5 334.5 211.2 329.9 210.5 325.4C210.2 325.2 209.9 325 209.6 324.8C210.5 329.2 209.9 333.9 208 338C206 342.1 202.8 345.4 198.8 347.6C198.5 347.7 198.3 347.9 198 348C197.8 348.1 197.5 348.2 197.3 348.3C192.3 350.4 186.6 350.5 181.6 348.6L181.5 348.4Z" fill="#FF5031" stroke="#9B6AF1" stroke-miterlimit="10"/>
<path d="M442.4 226.9C432 225.2 420.5 225.2 407.1 226.9C406.8 226.9 406.4 226.9 406.1 226.7C405.8 226.6 405.5 226.4 405.3 226.2C405.1 226 404.9 225.7 404.7 225.4C404.6 225.1 404.5 224.8 404.5 224.4V212.3C404.5 211.6 404.8 211 405.2 210.5C405.7 210 406.3 209.8 407 209.8C418.8 208.3 430.6 208.3 442.4 209.8C443.1 209.8 443.7 210.1 444.2 210.5C444.7 210.9 444.9 211.6 444.9 212.3V224.4C444.9 225.1 444.6 225.7 444.2 226.2C443.7 226.7 443.1 226.9 442.4 226.9Z" fill="white"/>
<path d="M442.4 226.9C432 225.2 420.5 225.2 407.1 226.9C406.8 226.9 406.4 226.9 406.1 226.7C405.8 226.6 405.5 226.4 405.3 226.2C405.1 226 404.9 225.7 404.7 225.4C404.6 225.1 404.5 224.8 404.5 224.4V212.3C404.5 211.6 404.8 211 405.2 210.5C405.7 210 406.3 209.8 407 209.8C418.8 208.3 430.6 208.3 442.4 209.8C443.1 209.8 443.7 210.1 444.2 210.5C444.7 210.9 444.9 211.6 444.9 212.3V224.4C444.9 225.1 444.6 225.7 444.2 226.2C443.7 226.7 443.1 226.9 442.4 226.9ZM424.2 209.3C418.5 209.3 412.7 209.7 407 210.4C406.8 210.4 406.5 210.4 406.3 210.5C406.1 210.5 405.9 210.7 405.7 210.9C405.5 211.1 405.4 211.3 405.3 211.5C405.3 211.7 405.2 212 405.2 212.2V224.3C405.2 224.8 405.4 225.3 405.7 225.6C406 225.9 406.5 226.1 407 226.1C420.4 224.4 431.9 224.4 442.4 226.1C442.9 226.1 443.3 225.9 443.7 225.6C444 225.3 444.2 224.8 444.2 224.3V212.2C444.2 211.7 444 211.3 443.7 210.9C443.4 210.6 442.9 210.4 442.4 210.4C436.4 209.6 430.3 209.3 424.3 209.3H424.2Z" fill="black"/>
<path d="M424.7 222.5C427.3 222.5 429.5 220.4 429.5 217.7C429.5 215 427.4 212.9 424.7 212.9C422 212.9 419.9 215 419.9 217.7C419.9 220.4 422 222.5 424.7 222.5Z" fill="#020202"/>
<path d="M412.4 215.2H408.3C408 215.2 407.8 215.1 407.6 214.9C407.4 214.7 407.3 214.4 407.3 214.2V212.8C407.3 212.5 407.4 212.3 407.6 212.1C407.8 211.9 408.1 211.8 408.3 211.8H412.4C412.7 211.8 412.9 211.9 413.1 212.1C413.3 212.3 413.4 212.6 413.4 212.8V214.2C413.4 214.5 413.3 214.7 413.1 214.9C412.9 215.1 412.6 215.2 412.4 215.2Z" fill="#020202"/>
<path d="M441.1 224.8H437C436.7 224.8 436.5 224.7 436.3 224.5C436.1 224.3 436 224 436 223.8V222.4C436 222.1 436.1 221.9 436.3 221.7C436.5 221.5 436.8 221.4 437 221.4H441.1C441.4 221.4 441.6 221.5 441.8 221.7C442 221.9 442.1 222.2 442.1 222.4V223.8C442.1 224.1 442 224.3 441.8 224.5C441.6 224.7 441.3 224.8 441.1 224.8Z" fill="#020202"/>
<path d="M436.5 221.9C427.6 216.3 417 211.8 404 208.2C403.7 208.1 403.4 207.9 403.2 207.7C403 207.5 402.8 207.2 402.6 206.9C402.5 206.6 402.4 206.3 402.4 205.9C402.4 205.5 402.4 205.2 402.6 204.9L407.3 193.8C407.6 193.2 408.1 192.7 408.7 192.4C409.3 192.1 410 192.2 410.6 192.4C422 195.6 433 200.2 443.2 206.2C443.8 206.5 444.3 207 444.5 207.6C444.7 208.2 444.7 208.9 444.5 209.5L439.8 220.6C439.5 221.2 439 221.7 438.4 222C437.8 222.3 437.1 222.2 436.5 222V221.9Z" fill="white"/>
<path d="M436.5 221.9C427.6 216.3 417 211.8 404 208.2C403.7 208.1 403.4 207.9 403.2 207.7C403 207.5 402.8 207.2 402.6 206.9C402.5 206.6 402.4 206.3 402.4 205.9C402.4 205.5 402.4 205.2 402.6 204.9L407.3 193.8C407.6 193.2 408.1 192.7 408.7 192.4C409.3 192.1 410 192.2 410.6 192.4C422 195.6 433 200.2 443.2 206.2C443.8 206.5 444.3 207 444.5 207.6C444.7 208.2 444.7 208.9 444.5 209.5L439.8 220.6C439.5 221.2 439 221.7 438.4 222C437.8 222.3 437.1 222.2 436.5 222V221.9ZM426.6 198.6C421.3 196.4 415.9 194.5 410.3 193C410.1 193 409.8 192.8 409.6 192.8C409.4 192.8 409.1 192.8 408.9 192.9C408.7 192.9 408.5 193.1 408.3 193.3C408.1 193.5 408 193.7 407.9 193.9L403.2 205C403 205.4 403 206 403.2 206.4C403.4 206.8 403.7 207.2 404.2 207.4C417.2 211 427.8 215.5 436.8 221.2C437.2 221.4 437.7 221.4 438.2 221.2C438.6 221 439 220.7 439.2 220.2L443.9 209.1C444.1 208.7 444.1 208.1 443.9 207.7C443.7 207.3 443.4 206.9 442.9 206.7C437.7 203.7 432.2 201 426.6 198.6Z" fill="black"/>
<path d="M423.8 211.4C426.4 211.4 428.6 209.3 428.6 206.6C428.6 203.9 426.5 201.8 423.8 201.8C421.1 201.8 419 203.9 419 206.6C419 209.3 421.1 211.4 423.8 211.4Z" fill="#020202"/>
<path d="M413.4 199.5L409.6 197.9C409.3 197.8 409.2 197.6 409 197.3C408.9 197 408.9 196.8 409 196.5L409.5 195.2C409.6 195 409.8 194.8 410.1 194.6C410.4 194.5 410.6 194.5 410.9 194.6L414.7 196.2C415 196.3 415.1 196.5 415.3 196.8C415.4 197.1 415.4 197.3 415.3 197.6L414.8 198.9C414.7 199.2 414.5 199.3 414.2 199.5C413.9 199.6 413.7 199.6 413.4 199.5Z" fill="#020202"/>
<path d="M436.2 219.5L432.4 217.9C432.1 217.8 432 217.6 431.8 217.3C431.7 217 431.7 216.8 431.8 216.5L432.3 215.2C432.4 215 432.6 214.8 432.9 214.6C433.2 214.5 433.4 214.5 433.7 214.6L437.5 216.2C437.8 216.3 437.9 216.5 438.1 216.8C438.2 217.1 438.2 217.3 438.1 217.6L437.6 218.9C437.5 219.2 437.3 219.3 437 219.5C436.7 219.6 436.5 219.6 436.2 219.5Z" fill="#020202"/>
<path d="M447.1 204.6L446.9 204.9L447.1 205.2C447.6 205.8 448.1 206.5 448.3 207.3V207.6C448.6 208.4 448.7 209.2 448.6 210V210.3C448.4 211.1 448.1 211.9 447.7 212.6L447.5 212.9C447 213.7 446.3 214.3 445.5 214.8C444.2 215.6 442.8 215.9 441.3 215.7H441C439.5 215.4 438.2 214.6 437.3 213.5L437.1 213.3C436.2 212.1 435.7 210.7 435.7 209.2V208.9C435.8 207.3 436.5 205.9 437.6 204.7V204.6L447 184.8L458.5 184.1L446.8 204.5L447.1 204.6Z" stroke="black"/>
<path d="M538.8 328.2V359.6H531.3L527.4 328.2H538.7H538.8Z" stroke="black"/>
<path d="M541.4 368.2H514.3V367.9C514.3 365.1 515.4 362.4 517.4 360.5C519.4 358.5 522.1 357.4 524.8 357.4H541.3V368.3L541.4 368.2Z" fill="#2F2E41"/>
<path d="M481.3 328.2V359.6H473.8L469.9 328.2H481.2H481.3Z" stroke="black"/>
<path d="M483.9 368.2H456.8V367.9C456.8 365.1 457.9 362.4 459.9 360.5C461.9 358.5 464.6 357.4 467.3 357.4H483.8V368.3L483.9 368.2Z" fill="#2F2E41"/>
<path d="M460.2 184.5C460.2 184.5 457.9 217.4 462.4 233.9C466.9 250.5 467.8 350.6 467.8 350.6H483L496.2 214.3L526.6 351.1L541.1 350.1L533.1 189L460.1 184.6L460.2 184.5Z" fill="#2F2E41"/>
<path d="M526.9 73.7L515.3 65.2L495.8 69.5L490.5 82.1L481.4 86.6C478.4 88.1 475.8 90.3 473.9 93C471.9 95.7 470.7 98.8 470.2 102.2L457.2 192L533.3 189.1L542.5 83.3C542.5 82.2 542.5 81.1 542.1 80C541.8 78.9 541.2 78 540.5 77.1C539.8 76.3 538.9 75.6 537.9 75.1C536.9 74.6 535.8 74.3 534.7 74.3L527 73.9L526.9 73.7Z" fill="#D8E373"/>
<path d="M476.5 93.5L469.5 103L438.9 196.4L453.3 202.1L476.3 158.6L476.6 93.5H476.5Z" fill="#D8E373"/>
<path d="M501.7 13.6C514.3 13.6 524.5 23.8 524.5 36.4C524.5 49 514.3 59.2 501.7 59.2C489.1 59.2 478.9 49 478.9 36.4C478.9 23.8 489.1 13.6 501.7 13.6Z" stroke="black"/>
<path d="M502 60.8C511.4 60.8 519 53.2 519 43.8C519 34.4 511.4 26.8 502 26.8C492.6 26.8 485 34.4 485 43.8C485 53.2 492.6 60.8 502 60.8Z" fill="#9B6AF1"/>
<path d="M499.8 0.5C506.8 0.5 512.5 6.2 512.5 13.2C512.5 20.2 506.8 25.9 499.8 25.9C492.8 25.9 487.1 20.2 487.1 13.2C487.1 6.2 492.8 0.5 499.8 0.5Z" stroke="black"/>
<path d="M519.5 30.2C519.5 33.6 518.5 36.8 516.9 39.3C515.3 41.7 513.2 43.1 511 43.3C511.1 43.3 511.3 43.3 511.4 43.3C513.7 43.3 515.9 42 517.6 39.5C519.3 37.1 520.2 33.7 520.3 30.2C520.3 26.7 519.5 23.3 518 20.8C516.4 18.3 514.3 16.9 512 16.8C511.9 16.8 511.7 16.8 511.6 16.8C513.8 17 515.9 18.5 517.3 21C518.8 23.5 519.6 26.8 519.5 30.2Z" fill="black"/>
<path opacity="0.1" d="M532.6 98.9L527.9 146.2L511.1 179.2L532.6 98.9Z" fill="black"/>
<path d="M31.1 244.5H27V247.9H31.1V244.5Z" fill="#F0F0F0"/>
<path d="M419.6 247.9H411.5V244.5H419.6V247.9ZM403.4 247.9H395.3V244.5H403.4V247.9ZM387.2 247.9H379.1V244.5H387.2V247.9ZM371.1 247.9H363V244.5H371.1V247.9ZM354.9 247.9H346.8V244.5H354.9V247.9ZM338.7 247.9H330.6V244.5H338.7V247.9ZM322.5 247.9H314.4V244.5H322.5V247.9ZM306.3 247.9H298.2V244.5H306.3V247.9ZM290.1 247.9H282V244.5H290.1V247.9ZM273.9 247.9H265.8V244.5H273.9V247.9ZM257.8 247.9H249.7V244.5H257.8V247.9ZM241.6 247.9H233.5V244.5H241.6V247.9ZM225.4 247.9H217.3V244.5H225.4V247.9ZM209.2 247.9H201.1V244.5H209.2V247.9ZM193 247.9H184.9V244.5H193V247.9ZM176.8 247.9H168.7V244.5H176.8V247.9ZM160.6 247.9H152.5V244.5H160.6V247.9ZM144.5 247.9H136.4V244.5H144.5V247.9ZM128.3 247.9H120.2V244.5H128.3V247.9ZM112.1 247.9H104V244.5H112.1V247.9ZM95.9 247.9H87.8V244.5H95.9V247.9ZM79.7 247.9H71.6V244.5H79.7V247.9ZM63.5 247.9H55.4V244.5H63.5V247.9ZM47.3 247.9H39.2V244.5H47.3V247.9Z" fill="#F8F8F8"/>
<path d="M31.1 157.5H27V160.9H31.1V157.5Z" fill="#F0F0F0"/>
<path d="M419.4 161.3H411.3V157.9H419.4V161.3ZM403.2 161.3H395.1V157.9H403.2V161.3ZM387 161.3H378.9V157.9H387V161.3ZM370.8 161.3H362.7V157.9H370.8V161.3ZM354.6 161.3H346.5V157.9H354.6V161.3ZM338.5 161.3H330.4V157.9H338.5V161.3ZM322.3 161.3H314.2V157.9H322.3V161.3ZM306.1 161.3H298V157.9H306.1V161.3ZM289.9 161.3H281.8V157.9H289.9V161.3ZM273.7 161.3H265.6V157.9H273.7V161.3ZM257.5 161.3H249.4V157.9H257.5V161.3ZM241.3 161.3H233.2V157.9H241.3V161.3ZM225.1 161.3H217V157.9H225.1V161.3ZM209 161.3H200.9V157.9H209V161.3ZM192.8 161.3H184.7V157.9H192.8V161.3ZM176.6 161.3H168.5V157.9H176.6V161.3ZM160.4 161.3H152.3V157.9H160.4V161.3ZM144.2 161.3H136.1V157.9H144.2V161.3ZM128 161.3H119.9V157.9H128V161.3ZM111.8 161.3H103.7V157.9H111.8V161.3ZM95.7 161.3H87.6V157.9H95.7V161.3ZM79.5 161.3H71.4V157.9H79.5V161.3ZM63.3 161.3H55.2V157.9H63.3V161.3ZM47.1 161.3H39V157.9H47.1V161.3Z" fill="#F8F8F8"/>
<path d="M419.4 69.1H411.3V65.7H419.4V69.1ZM403.2 69.1H395.1V65.7H403.2V69.1ZM387 69.1H378.9V65.7H387V69.1ZM370.8 69.1H362.7V65.7H370.8V69.1ZM354.6 69.1H346.5V65.7H354.6V69.1ZM338.5 69.1H330.4V65.7H338.5V69.1ZM322.3 69.1H314.2V65.7H322.3V69.1ZM306.1 69.1H298V65.7H306.1V69.1ZM289.9 69.1H281.8V65.7H289.9V69.1ZM273.7 69.1H265.6V65.7H273.7V69.1ZM257.5 69.1H249.4V65.7H257.5V69.1ZM241.3 69.1H233.2V65.7H241.3V69.1ZM225.1 69.1H217V65.7H225.1V69.1ZM209 69.1H200.9V65.7H209V69.1ZM192.8 69.1H184.7V65.7H192.8V69.1ZM176.6 69.1H168.5V65.7H176.6V69.1ZM160.4 69.1H152.3V65.7H160.4V69.1ZM144.2 69.1H136.1V65.7H144.2V69.1ZM128 69.1H119.9V65.7H128V69.1ZM111.8 69.1H103.7V65.7H111.8V69.1ZM95.7 69.1H87.6V65.7H95.7V69.1ZM79.5 69.1H71.4V65.7H79.5V69.1ZM63.3 69.1H55.2V65.7H63.3V69.1ZM47.1 69.1H39V65.7H47.1V69.1Z" fill="#F8F8F8"/>
<path d="M160.9 245.5H127.4V368.7H160.9V245.5Z" fill="#070707"/>
<path d="M167 245.5H133.5V368.7H167V245.5Z" fill="#D8E373"/>
<path d="M240.3 158.6H206.8V368.7H240.3V158.6Z" fill="#070707"/>
<path d="M246.4 158.6H212.9V368.7H246.4V158.6Z" fill="#D8E373"/>
<path d="M319.7 71.6H286.2V368.7H319.7V71.6Z" fill="#070707"/>
<path d="M325.8 71.6H292.3V368.7H325.8V71.6Z" fill="#D8E373"/>
<path d="M27.4 167.5C31.9 167.5 35.6 163.8 35.6 159.3C35.6 154.8 31.9 151.1 27.4 151.1C22.9 151.1 19.2 154.8 19.2 159.3C19.2 163.8 22.9 167.5 27.4 167.5Z" fill="#F8F8F8"/>
<path d="M27.4 75.3C31.9 75.3 35.6 71.6 35.6 67.1C35.6 62.6 31.9 58.9 27.4 58.9C22.9 58.9 19.2 62.6 19.2 67.1C19.2 71.6 22.9 75.3 27.4 75.3Z" fill="#F8F8F8"/>
<path d="M27.4 254.4C31.9 254.4 35.6 250.7 35.6 246.2C35.6 241.7 31.9 238 27.4 238C22.9 238 19.2 241.7 19.2 246.2C19.2 250.7 22.9 254.4 27.4 254.4Z" fill="#F8F8F8"/>
<path d="M607.8 367.9H0V369.4H607.8V367.9Z" fill="#2F2E41"/>
<path d="M512.9 211.8C502.5 210.1 491 210.1 477.6 211.8C477.3 211.8 476.9 211.8 476.6 211.6C476.3 211.5 476 211.3 475.8 211.1C475.6 210.9 475.4 210.6 475.2 210.3C475.1 210 475 209.7 475 209.3V197.2C475 196.5 475.3 195.9 475.7 195.4C476.2 194.9 476.8 194.7 477.5 194.7C489.3 193.2 501.1 193.2 512.9 194.7C513.6 194.7 514.2 195 514.6 195.4C515.1 195.9 515.3 196.5 515.3 197.2V209.3C515.3 210 515 210.6 514.6 211.1C514.1 211.6 513.5 211.8 512.8 211.8H512.9Z" fill="white"/>
<path d="M512.9 211.8C502.5 210.1 491 210.1 477.6 211.8C477.3 211.8 476.9 211.8 476.6 211.6C476.3 211.5 476 211.3 475.8 211.1C475.6 210.9 475.4 210.6 475.2 210.3C475.1 210 475 209.7 475 209.3V197.2C475 196.5 475.3 195.9 475.7 195.4C476.2 194.9 476.8 194.7 477.5 194.7C489.3 193.2 501.1 193.2 512.9 194.7C513.6 194.7 514.2 195 514.6 195.4C515.1 195.9 515.3 196.5 515.3 197.2V209.3C515.3 210 515 210.6 514.6 211.1C514.1 211.6 513.5 211.8 512.8 211.8H512.9ZM494.7 194.3C489 194.3 483.2 194.7 477.5 195.4C477.3 195.4 477 195.4 476.8 195.5C476.6 195.5 476.4 195.7 476.2 195.9C476 196.1 475.9 196.3 475.8 196.5C475.8 196.7 475.7 197 475.7 197.2V209.3C475.7 209.8 475.9 210.3 476.2 210.6C476.5 210.9 477 211.1 477.5 211.1C490.9 209.4 502.4 209.4 512.9 211.1C513.4 211.1 513.8 210.9 514.2 210.6C514.5 210.3 514.7 209.8 514.7 209.3V197.2C514.7 196.7 514.5 196.2 514.2 195.9C513.9 195.6 513.4 195.4 512.9 195.4C506.9 194.6 500.8 194.3 494.8 194.3H494.7Z" fill="#020202"/>
<path d="M495.2 207.5C497.8 207.5 500 205.4 500 202.7C500 200 497.9 197.9 495.2 197.9C492.5 197.9 490.4 200 490.4 202.7C490.4 205.4 492.5 207.5 495.2 207.5Z" fill="#020202"/>
<path d="M482.9 200.2H478.8C478.5 200.2 478.3 200.1 478.1 199.9C477.9 199.7 477.8 199.4 477.8 199.2V197.8C477.8 197.5 477.9 197.3 478.1 197.1C478.3 196.9 478.6 196.8 478.8 196.8H482.9C483.2 196.8 483.4 196.9 483.6 197.1C483.8 197.3 483.9 197.6 483.9 197.8V199.2C483.9 199.5 483.8 199.7 483.6 199.9C483.4 200.1 483.1 200.2 482.9 200.2Z" fill="#020202"/>
<path d="M511.6 209.8H507.5C507.2 209.8 507 209.7 506.8 209.5C506.6 209.3 506.5 209 506.5 208.8V207.4C506.5 207.1 506.6 206.9 506.8 206.7C507 206.5 507.3 206.4 507.5 206.4H511.6C511.9 206.4 512.1 206.5 512.3 206.7C512.5 206.9 512.6 207.2 512.6 207.4V208.8C512.6 209.1 512.5 209.3 512.3 209.5C512.1 209.7 511.8 209.8 511.6 209.8Z" fill="#020202"/>
<path d="M529.2 177.4L518.4 196.5V196.7C518.1 198.2 517.4 199.5 516.3 200.4L516.1 200.6C514.9 201.6 513.3 202.1 511.8 202C510.3 202 508.9 201.3 507.8 200.4L507.6 200.2C506.6 199.2 505.9 197.8 505.7 196.3V196V195.7C505.7 195 505.7 194.3 506 193.6V193.3C506.4 192.5 506.8 191.8 507.4 191.2L507.6 191C508.2 190.4 508.9 190 509.6 189.7H509.9C510.8 189.3 511.7 189.2 512.6 189.3H513L513.2 189L523.2 167.7L529.2 177.5V177.4Z" stroke="black"/>
<path d="M533.5 80.3L537.8 74.7C537.8 74.7 548.3 72.6 550 86.9L548.9 150.8L526 186.9L511.1 183.1L530.6 140.2L533.5 80.2V80.3Z" fill="#D8E373"/>
<path d="M504.85 36.75V41.3057C504.995 41.2544 505.141 41.2247 505.287 41.2246C505.495 41.2246 505.689 41.2809 505.871 41.3828L506.05 41.5L506.064 41.5107L506.077 41.5234C506.091 41.5369 506.11 41.5525 506.146 41.582C506.179 41.6081 506.223 41.6438 506.265 41.6855C506.34 41.7611 506.427 41.8768 506.445 42.0381C506.542 42.2589 506.548 42.4747 506.549 42.6484C506.605 42.8009 506.598 42.9625 506.587 43.085C506.572 43.2486 506.55 43.3643 506.55 43.5V43.541L506.537 43.5791C506.43 43.8993 506.315 44.1394 506.077 44.377C505.978 44.476 505.845 44.6099 505.696 44.7314C505.618 44.7954 505.53 44.8589 505.437 44.915L505.563 45.167L505.261 45.2422C505.069 45.2901 504.894 45.3573 504.675 45.4258C504.469 45.4901 504.239 45.5498 504 45.5498H503.75V44.583L503.965 44.5527L504.212 44.5117C504.772 44.4049 505.208 44.215 505.505 43.8438L505.539 43.8008L505.588 43.7764C505.691 43.7246 505.75 43.6192 505.75 43.5V42.5322C505.74 42.5156 505.725 42.4935 505.705 42.4688C505.685 42.4435 505.664 42.4198 505.647 42.4023C505.644 42.399 505.641 42.3963 505.639 42.3936C505.51 42.3019 505.369 42.2833 505.22 42.3184C505.061 42.3558 504.9 42.4537 504.776 42.5771L504.748 42.6055L504.712 42.624L504.312 42.8232L503.95 43.0049V36.75H504.85Z" fill="#020202" stroke="#020202" stroke-width="0.5"/>
<path d="M512.05 37.65V38.8121L511.841 38.8463H511.84L511.838 38.8473C511.837 38.8476 511.834 38.8477 511.83 38.8482C511.824 38.8494 511.813 38.851 511.8 38.8531C511.774 38.8575 511.735 38.8645 511.686 38.8727C511.587 38.8891 511.446 38.9119 511.277 38.94C510.938 38.9963 510.484 39.072 510.028 39.1471C509.572 39.222 509.112 39.2968 508.76 39.3531C508.584 39.3813 508.435 39.4049 508.326 39.4215C508.271 39.4297 508.225 39.4364 508.192 39.441C508.17 39.4441 508.128 39.4498 508.1 39.4498H507.85V38.2887L508.059 38.2535L511.659 37.6529L511.679 37.65H512.05Z" fill="#020202" stroke="#020202" stroke-width="0.5"/>
<path d="M496.95 39.4498H496.7C496.672 39.4498 496.629 39.4441 496.607 39.441C496.574 39.4364 496.529 39.4297 496.475 39.4215C496.366 39.4049 496.216 39.3813 496.04 39.3531C495.688 39.2968 495.228 39.2221 494.771 39.1471C494.315 39.0721 493.862 38.9963 493.523 38.94C493.354 38.9119 493.213 38.8891 493.114 38.8727C493.065 38.8645 493.025 38.8575 492.999 38.8531C492.986 38.851 492.976 38.8494 492.97 38.8482C492.967 38.8477 492.964 38.8476 492.962 38.8473L492.96 38.8463H492.959L492.75 38.8121V37.65H493.121L493.141 37.6529L496.741 38.2535L496.95 38.2887V39.4498Z" fill="#020202" stroke="#020202" stroke-width="0.5"/>
<path d="M550.1 86.9C548.3 72.5 537.9 74.7 537.9 74.7L537.7 75C536.8 74.6 535.8 74.3 534.7 74.3L527 73.9L515.4 65.4L495.9 69.7L490.6 82.3L481.5 86.8C478.5 88.3 475.9 90.5 474 93.2C472 95.9 470.8 99 470.3 102.4V102.6L469.7 103.4L439.1 196.8L453.5 202.5L459 192.2L533.5 189.3L534.9 173.8L549.3 151.2L550.4 87.3L550.1 86.9Z" stroke="black"/>
<path d="M127.3 245.5H167V368.7" stroke="black"/>
<path d="M209 157.9H246.4V368.3" stroke="black"/>
<path d="M286.1 71.6H325.8V368.7" stroke="black"/>
</g>
<defs>
<clipPath id="clip0_15005_3296">
<rect width="662" height="413" fill="white"/>
</clipPath>
</defs>
</svg>
