<svg width="67" height="66" viewBox="0 0 67 66" fill="none" xmlns="http://www.w3.org/2000/svg">
<path d="M55.5 33V60.5H11.5V33" stroke="black" stroke-width="2" stroke-linecap="round" stroke-linejoin="round"/>
<path d="M61 19.25H6V33H61V19.25Z" stroke="black" stroke-width="2" stroke-linecap="round" stroke-linejoin="round"/>
<path d="M33.5 60.5V19.25" stroke="black" stroke-width="2" stroke-linecap="round" stroke-linejoin="round"/>
<path d="M33.5 19.25H21.125C19.3016 19.25 17.553 18.5257 16.2636 17.2364C14.9743 15.947 14.25 14.1984 14.25 12.375C14.25 10.5516 14.9743 8.80295 16.2636 7.51364C17.553 6.22433 19.3016 5.5 21.125 5.5C30.75 5.5 33.5 19.25 33.5 19.25Z" stroke="black" stroke-width="2" stroke-linecap="round" stroke-linejoin="round"/>
<path d="M33.5 19.25H45.875C47.6984 19.25 49.447 18.5257 50.7364 17.2364C52.0257 15.947 52.75 14.1984 52.75 12.375C52.75 10.5516 52.0257 8.80295 50.7364 7.51364C49.447 6.22433 47.6984 5.5 45.875 5.5C36.25 5.5 33.5 19.25 33.5 19.25Z" stroke="black" stroke-width="2" stroke-linecap="round" stroke-linejoin="round"/>
</svg>
