<svg width="283" height="229" viewBox="0 0 283 229" fill="none" xmlns="http://www.w3.org/2000/svg">
<g clip-path="url(#clip0_15013_2663)">
<path d="M161.8 228.4C159.2 228.4 156.8 227.4 154.9 225.6C153.1 223.8 152 221.3 152 218.8V211.8C144.7 212.6 119.7 212.4 112.5 211.3V218.5C112.5 221.1 111.4 223.5 109.6 225.3C107.8 227.1 105.3 228.1 102.8 228.1C100.3 228.1 97.8 227.1 96 225.3C94.2 223.5 93.1 221 93.1 218.5V204.3C83.4 198.9 75.3 191 69.7 181.5C64.1 171.9 61.1 161 61 149.9C61 130.9 69.6 113.1 84.7 101.2C94.5 93.4 106.4 88.7 118.8 87.8C120.5 87.7 122.2 87.6 123.9 87.6C129.8 87.6 156.2 88.5 162.9 90.4L178 75.4C178.2 75.2 178.5 75 178.8 75C179.1 75 179.4 75 179.7 75C180 75.1 180.2 75.3 180.4 75.6C180.6 75.9 180.7 76.2 180.7 76.5V78.9L183.6 76C183.8 75.8 184.1 75.6 184.4 75.6C184.7 75.6 185 75.6 185.3 75.6C185.6 75.7 185.8 75.9 186 76.2C186.2 76.5 186.3 76.8 186.3 77.1V103.8C193.9 110.7 199.7 119.3 203.2 128.9C206.7 138.5 207.7 148.9 206.2 159C204.7 169.1 200.8 178.7 194.7 187C188.6 195.2 180.6 201.8 171.4 206.2V218.9C171.4 221.5 170.4 223.9 168.5 225.7C166.7 227.5 164.2 228.5 161.6 228.5L161.8 228.4Z" fill="url(#paint0_linear_15013_2663)"/>
<path d="M109.3 215.7C108.6 211.5 107.9 207.2 107.2 203C106.5 198.7 105 194.7 101.6 191.9C100.7 191.1 99.8 190.4 98.8 189.7C98.5 189.5 98.1 189.2 97.8 189C97.8 189 97.8 189 97.7 188.9C96.3 187.7 95 186.5 93.7 185.2C92.6 184 91.5 182.8 90.4 181.6C90.1 181.3 89.9 181 89.6 180.6C89.6 180.6 89.3 180.2 89.2 180C89.1 179.8 88.8 179.4 88.7 179.4C88.4 179 88.1 178.6 87.8 178.1C85.9 175.2 84.2 172.1 82.8 168.9C82.7 168.6 82.5 168.3 82.4 167.9C82.4 167.9 82.4 167.7 82.3 167.5C82 166.7 81.7 165.9 81.5 165.2C80.9 163.5 80.5 161.8 80.1 160.1C79.9 159.2 79.7 158.4 79.6 157.5C79.6 157.1 79.4 156.6 79.4 156.2C79.4 156.2 79.4 155.6 79.3 155.4C79.3 155.1 79.3 154.6 79.3 154.6C79.3 154.2 79.3 153.7 79.2 153.3C79.2 152.3 79.1 151.3 79 150.3C79 148.5 79 146.7 79 144.9C79 143.9 79.2 142.9 79.3 141.9C79.3 141.9 79.3 141.8 79.3 141.7C79.3 141.7 79.3 141.7 79.3 141.5C79.3 140.9 79.5 140.4 79.6 139.8C80 137.7 80.4 135.6 81 133.6C81.3 132.6 81.6 131.7 81.9 130.7C82 130.3 82.2 129.9 82.3 129.4L82.8 128.2C84.6 123.9 87.6 119.9 87.6 115C87.6 111.7 84.8 108.5 81.5 108.6C79.9 108.6 78.3 109.4 77.2 110.5C76.1 111.7 75.4 113.3 75.4 114.9C75.4 114.9 75.4 115 75.4 115.1C75.4 115.2 75.4 115.3 75.4 115.4C75 116.2 74.6 116.9 74.2 117.7C73.1 119.8 72.2 121.9 71.3 124.1C69.9 127.6 68.8 131.3 68 135C66.4 143.2 66.3 151.6 67.6 159.9C70 174.3 77.8 188.2 88.7 197.5C89.6 198.3 90.6 199.1 91.6 199.8C92 200.1 92.4 200.4 92.8 200.7C93 200.8 93.8 201.5 93.4 201.2C94.2 201.8 94.5 202.2 94.7 202.6C94.7 202.7 94.7 202.9 94.8 203.1C94.9 203.6 95.1 204.2 95.2 204.7C96.1 209.5 96.8 214.3 97.6 219.1C98.1 222.4 102.2 224.5 105.1 223.5C108.5 222.4 110 219.2 109.4 215.7H109.3Z" fill="#020202"/>
<path d="M179.74 74.75L179.779 74.7627C180.154 74.8877 180.394 75.1389 180.608 75.4609C180.83 75.7936 180.95 76.1414 180.95 76.5V78.2959L183.423 75.8232L183.511 75.7412C183.73 75.5471 184.05 75.3496 184.4 75.3496H185.341L185.379 75.3633C185.754 75.4882 185.993 75.7394 186.208 76.0615L186.286 76.1865C186.458 76.4807 186.55 76.7859 186.55 77.0996V103.69C194.139 110.605 199.933 119.211 203.435 128.814C206.949 138.454 207.953 148.897 206.447 159.037C204.941 169.177 201.026 178.815 194.901 187.148L194.9 187.149C188.808 195.339 180.827 201.938 171.65 206.355V218.9C171.65 221.567 170.623 224.033 168.672 225.882C166.823 227.728 164.26 228.75 161.6 228.75L161.574 228.645C158.994 228.588 156.618 227.571 154.729 225.781L154.724 225.776C152.88 223.933 151.75 221.371 151.75 218.8V212.075C147.964 212.455 140.074 212.598 132.21 212.513C124.357 212.427 116.497 212.114 112.75 211.587V218.5C112.75 221.172 111.619 223.634 109.776 225.477C107.928 227.325 105.364 228.35 102.8 228.35C100.235 228.35 97.6713 227.325 95.8232 225.477C93.9799 223.633 92.8496 221.071 92.8496 218.5V204.445C83.1683 199.026 75.0821 191.123 69.4844 181.627V181.626C63.8625 171.988 60.8504 161.046 60.75 149.902V149.9L60.7559 149.007C61.0209 130.267 69.6213 112.765 84.5439 101.004L85.4727 100.279C95.1301 92.8822 106.72 88.4263 118.782 87.5508H118.785L120.061 87.4766C121.338 87.4061 122.619 87.3496 123.9 87.3496C126.857 87.3496 134.937 87.5754 143.114 88.0381C147.203 88.2694 151.32 88.5601 154.834 88.9121C158.246 89.2539 161.108 89.6561 162.825 90.1211L177.824 75.2227C178.04 75.0066 178.401 74.7501 178.8 74.75H179.74ZM178.9 75.8496C178.847 75.8496 178.815 75.8623 178.791 75.877C178.759 75.8961 178.73 75.9234 178.677 75.9766L178.676 75.9775L163.176 91.2783L163.103 91.3496H162.761L162.724 91.3379C161.202 90.847 158.383 90.4177 154.895 90.0518C151.414 89.6867 147.29 89.3868 143.173 89.1494C134.939 88.6746 126.744 88.4502 123.8 88.4502C120.84 88.4502 120.033 88.4508 119.746 88.4746C119.681 88.4801 119.655 88.4854 119.642 88.4893C119.633 88.4916 119.625 88.4943 119.609 88.5C119.594 88.5055 119.572 88.5138 119.545 88.5225C119.434 88.5581 119.258 88.598 118.829 88.6484L118.82 88.6494C106.569 89.6455 94.8168 94.2268 85.2568 101.895L85.2549 101.896C70.4142 113.649 61.9503 131.077 61.9502 149.8C61.9502 160.754 64.9379 171.51 70.5156 180.973L71.0459 181.855C76.5872 190.899 84.4268 198.337 93.665 203.45H94.0498V218.4C94.0499 220.726 95.0179 222.864 96.5771 224.523L96.8926 224.824C98.4974 226.282 100.512 227.05 102.7 227.05C105.035 227.05 107.171 226.176 108.823 224.523C110.476 222.871 111.35 220.735 111.35 218.4V210.05H112.125L112.149 210.055C115.321 210.699 123.696 211.075 132.115 211.175C140.531 211.275 148.938 211.099 152.166 210.652L152.183 210.65H153.15V218.7C153.15 221.026 154.118 223.164 155.677 224.823L155.992 225.124C157.597 226.582 159.611 227.35 161.8 227.35C164.134 227.35 166.27 226.476 167.923 224.823C169.575 223.171 170.45 221.035 170.45 218.7V205.25H170.842C181.179 200.269 189.925 192.609 196.09 183.064L196.091 183.063L196.461 182.487C204.159 170.356 207.313 155.949 205.353 141.734V141.732C203.465 127.324 196.419 114.104 185.603 104.35H185.35V77C185.35 76.8951 185.349 76.8418 185.341 76.791C185.333 76.7465 185.318 76.695 185.276 76.6113L185.257 76.5732C185.251 76.5689 185.244 76.5631 185.236 76.5576C185.187 76.5249 185.121 76.4908 185.04 76.4502H184.6C184.546 76.4503 184.516 76.462 184.491 76.4766C184.459 76.4957 184.43 76.5239 184.377 76.5771L184.375 76.5791L180.074 80.7793L179.65 81.1934V76.4004C179.65 76.2956 179.649 76.2421 179.641 76.1914C179.633 76.1469 179.618 76.0955 179.576 76.0117L179.557 75.9727C179.551 75.9684 179.544 75.9633 179.536 75.958C179.487 75.9253 179.421 75.8904 179.34 75.8496H178.9Z" fill="#EBE8ED" stroke="#EBE8ED" stroke-width="0.5"/>
<path d="M110 45.9001L67.7 58.6C66.4 59 65.2 59.9001 64.6 61.2001C63.9 62.4001 63.8 63.9 64.2 65.2C64.6 66.5 65.5 67.7001 66.8 68.3001C68 69.0001 69.5 69.1 70.8 68.7L107.8 57.6L108.6 57.4001C108.8 53.4001 109.8 49.5 111.8 46C111.6 45.9 111.3 45.8 111 45.8C110.7 45.8 110.4 45.8 110.1 45.8L110 45.9001Z" fill="#EBE8ED"/>
<path d="M70 71.5001C69.4 71.5001 68.9 71.3001 68.4 71.0001C67.9 70.7001 67.6 70.2001 67.4 69.7001L64.8 61.7001C64.7 61.4001 64.6 61.0001 64.7 60.7001C64.7 60.3001 64.8 60.0001 65 59.7001C65.2 59.4001 65.4 59.1001 65.6 58.9001C65.9 58.7001 66.2 58.5001 66.5 58.4001L100.9 47.0001C101.2 46.9001 101.6 46.8001 101.9 46.9001C102.3 46.9001 102.6 47.0001 102.9 47.2001C103.2 47.4001 103.5 47.6001 103.7 47.8001C103.9 48.1001 104.1 48.4001 104.2 48.7001L106.8 56.7001C107 57.4001 107 58.1001 106.7 58.7001C106.4 59.3001 105.9 59.8001 105.2 60.0001L70.8 71.4001C70.5 71.4001 70.2 71.5001 70 71.5001Z" fill="#9B6AF1"/>
<path d="M134.5 31.4502C139.85 31.4502 145.098 33.0651 149.537 35.9912C153.978 38.9183 157.512 43.1578 159.531 48.1055C161.55 53.0513 162.054 58.5007 161.045 63.7471C160.035 68.9974 157.411 73.8427 153.677 77.5771C149.943 81.3107 145.1 83.9331 139.851 84.9434L139.852 84.9443C134.599 86.0554 129.148 85.4491 124.205 83.4316L124.201 83.4297C119.259 81.3117 115.02 77.8809 112.091 73.4375C109.165 68.9977 107.55 63.7502 107.55 58.4004V57.5928L107.577 56.9316C107.937 50.1136 110.837 43.7141 115.727 39.0195C120.773 34.1754 127.435 31.4502 134.5 31.4502ZM140.141 33.4434C135.445 32.2933 130.466 32.6279 125.835 34.2715L125.388 34.4346C120.784 36.1609 116.829 39.1885 113.884 43.0693L113.602 43.4482C110.632 47.5077 108.948 52.3596 108.75 57.4102V58.5C108.75 65.3344 111.424 71.871 116.277 76.7236L116.737 77.1719C121.538 81.7405 127.879 84.25 134.5 84.25H135.104L135.011 84.3418C139.85 84.227 144.571 82.7522 148.562 80.0918L148.564 80.0908L148.96 79.8271C153.024 77.0701 156.15 73.2121 158.07 68.7021C160.051 64.0464 160.645 58.8958 159.754 53.9443C158.863 48.9948 156.487 44.4388 153.019 40.7725C149.552 37.1078 145.096 34.5333 140.147 33.4443L140.141 33.4434Z" fill="#EBE8ED" stroke="#EBE8ED" stroke-width="0.5"/>
<path d="M157.1 58.5002C157.1 64.5002 154.7 70.2002 150.5 74.4002C146.3 78.6002 140.5 81.0002 134.6 81.0002C128.7 81.0002 122.9 78.6002 118.7 74.4002C114.5 70.2002 112.1 64.4002 112.1 58.5002C112.1 52.6002 112.1 57.1002 112.1 56.4002C112.6 50.6002 115.4 45.3002 119.8 41.5002C124.2 37.7002 129.8 35.7002 135.6 36.0002C141.4 36.3002 146.9 38.8002 150.9 43.0002C154.9 47.2002 157.1 52.8002 157.1 58.6002V58.5002Z" fill="#D8E373"/>
<path d="M141.3 60.0001C140.8 59.3001 140 58.7001 139.2 58.3001C138.2 57.9001 137.1 57.5001 136.1 57.3001V51.2001C137.7 51.4001 139.3 52.2001 140.6 53.2001L141.8 50.5001C141.1 49.9001 140.3 49.4001 139.4 49.0001C138.4 48.6001 137.4 48.3001 136.3 48.2001V45.1001H133.4V48.2001C132.3 48.3001 131.2 48.7001 130.2 49.3001C129.3 49.8001 128.6 50.5001 128.1 51.4001C127.6 52.2001 127.3 53.2001 127.3 54.2001C127.3 55.3001 127.6 56.3001 128.2 57.2001C128.8 58.0001 129.5 58.5001 130.4 58.9001C131.4 59.3001 132.5 59.7001 133.6 60.0001V65.9001C131.7 65.8001 129.8 65.0001 128.3 63.8001L127.1 66.5001C127.9 67.2001 128.9 67.7001 129.9 68.1001C131 68.5001 132.2 68.8001 133.4 68.8001V71.9001H136.3V68.8001C137.9 68.6001 139.4 67.9001 140.6 66.8001C141.1 66.3001 141.5 65.7001 141.8 65.0001C142.1 64.3001 142.2 63.6001 142.2 62.9001C142.2 61.9001 141.9 60.9001 141.4 60.0001H141.3ZM133.5 56.7001C132.8 56.5001 132.1 56.1001 131.6 55.7001C131.4 55.5001 131.2 55.3001 131.1 55.0001C131 54.7001 130.9 54.4001 130.9 54.1001C130.9 53.4001 131.1 52.8001 131.6 52.3001C132.1 51.8001 132.8 51.4001 133.5 51.3001V56.8001V56.7001ZM137.8 64.8001C137.3 65.3001 136.7 65.6001 136 65.7001V60.6001C136.7 60.8001 137.3 61.1001 137.8 61.5001C138 61.7001 138.2 61.9001 138.3 62.1001C138.4 62.3001 138.5 62.6001 138.4 62.9001C138.4 63.6001 138.2 64.2001 137.8 64.7001V64.8001Z" fill="#020202"/>
<path d="M71.3 103.9C70.7 103.9 70.1 103.7 69.7 103.3C69.2 102.9 68.9 102.4 68.7 101.9L67.3 96.4001C67.1 95.7001 67.3 95.0001 67.6 94.4001C68 93.8001 68.5 93.3001 69.2 93.2001L114.6 81.2001C115.3 81.0001 116 81.2001 116.6 81.5001C117.2 81.9001 117.7 82.4001 117.8 83.1001L119 87.7001H118.8C107.1 88.6001 96 92.8001 86.7 99.9001L72 103.8C71.8 103.8 71.6 103.8 71.3 103.8V103.9Z" fill="#9B6AF1"/>
<path d="M63.7 130.8C58.4 130 53.3 128.1 48.8 125.1C46.6 123.6 44.5 122 42.6 120C40.8 118.1 39 116 38.1 113.5C37.2 111.2 37.3 108.6 38.2 106.3C39.1 104 41 102.2 43.2 101.3C45.5 100.4 48.3 100.3 50.5 101.3C51.6 101.8 52.5 102.5 53.2 103.4C53.5 103.8 53.8 104.3 53.9 104.8C54 105.3 54 105.8 53.9 106.2C53.8 106.7 53.5 107.1 53.2 107.5C52.9 107.9 52.5 108.2 52.1 108.4C51.1 108.9 50.1 109.2 49 109.3C47.9 109.4 46.3 109.6 45.5 108.7C45.3 108.5 45.2 108.3 45.1 108.1C45.1 107.9 45.1 107.7 45.1 107.5V107.3C45.1 107.3 45.1 107.3 45.1 107.2C45.1 107.1 45.3 107 45.4 107C45.4 107 45.5 107 45.6 107C45.5 107 45.7 107 45.6 107C45.6 107 45.7 107 45.8 107C45.7 107 45.9 107 45.8 107H45.9C45.9 107 45.9 107 46 107.2C46.2 107.4 46.4 107.5 46.6 107.5C46.8 107.5 47.1 107.5 47.2 107.2C47.4 107 47.5 106.8 47.5 106.6C47.5 106.4 47.5 106.1 47.2 106C46.3 104.9 44.6 105.2 43.7 106.1C42.6 107.3 43 109.2 44.1 110.2C45.4 111.4 47.1 111.4 48.7 111.3C50.1 111.2 51.4 110.8 52.6 110.2C53.8 109.6 54.8 108.6 55.3 107.3C55.5 106.6 55.6 105.9 55.5 105.2C55.5 104.5 55.2 103.8 54.9 103.2C53.5 100.5 50.5 99.1001 47.6 98.9001C46.1 98.8001 44.6 98.9001 43.2 99.4001C41.8 99.9001 40.4 100.6 39.3 101.6C37.1 103.6 35.8 106.3 35.5 109.3C35.2 112.4 36.4 115.3 38.2 117.8C40 120.3 42.2 122.5 44.6 124.4C49.4 128.2 55 130.9 61 132.1C61.7 132.2 62.4 132.4 63.1 132.5C63.3 132.5 63.6 132.5 63.8 132.5C64 132.4 64.2 132.2 64.2 132C64.2 131.8 64.2 131.5 64.2 131.3C64.1 131.1 63.9 130.9 63.7 130.9V130.8Z" fill="#EBE8ED"/>
<path d="M149.1 91.9C141.3 91.8 133.5 91.9 125.7 92.5C123 92.7 120.8 93.6 120.8 95.2C120.8 96.8 123.1 98.1 125.7 97.9C133.5 97.4 141.2 97.2 149.1 97.3C155.5 97.3 155.5 92 149.1 91.9Z" fill="#3B3B3B"/>
<path d="M137.6 97.0001C136.8 97.0001 116.9 97.0001 116.9 94.2001C116.9 91.4001 136.7 91.4001 137.6 91.4001C138.5 91.4001 158.3 91.4001 158.3 94.2001C158.3 97.0001 138.5 97.0001 137.6 97.0001ZM117.7 94.2001C118.2 95.0001 125.5 96.2001 137.6 96.2001C149.7 96.2001 157 95.0001 157.5 94.2001C157 93.4001 149.7 92.2001 137.6 92.2001C125.5 92.2001 118.2 93.4001 117.7 94.2001Z" fill="#F5F5F5"/>
<path d="M77.7 116.1C77.1 116.1 76.4 115.9 76 115.5C75.5 115.1 75.2 114.5 75.1 113.9L74.2 108.3C74.1 107.6 74.2 106.9 74.7 106.3C75.1 105.7 75.7 105.3 76.4 105.2L122.8 97.9001C123.5 97.8001 124.2 97.9001 124.8 98.4001C125.4 98.8001 125.8 99.4001 125.9 100.1L126.8 105.7C126.9 106.4 126.8 107.1 126.3 107.7C125.9 108.3 125.3 108.7 124.6 108.8L78.2 116.1C78.1 116.1 77.9 116.1 77.8 116.1H77.7Z" fill="#9B6AF1"/>
<path d="M58.5 50.8C69.3 50.8 78 42.1 78 31.3C78 20.5 69.3 11.8 58.5 11.8C47.7 11.8 39 20.5 39 31.3C39 42.1 47.7 50.8 58.5 50.8Z" fill="#EBE8ED"/>
<path d="M68.8504 23.4502V30.9453C69.7029 30.6732 70.5035 30.6798 71.1746 31.0039L71.324 31.083L71.3318 31.0879L71.3387 31.0918C71.6661 31.3101 71.8899 31.5339 72.1082 31.8613C72.33 32.194 72.45 32.5418 72.45 32.9004C72.45 33.3326 72.3438 33.8573 72.243 34.2607C72.1267 34.7259 71.7883 35.1647 71.4764 35.4766L71.4666 35.4863L71.4559 35.4951C70.9632 35.8892 70.3586 36.2952 69.7381 36.5146L69.6766 36.5771L69.6307 36.623L69.5692 36.6406C68.9566 36.8156 68.3298 36.9947 67.5643 37.1055L67.2274 37.1484L66.95 37.1797V35.8838L67.1649 35.8525L67.6824 35.7725C68.8579 35.5732 69.8625 35.2693 70.5057 34.6377C70.7043 34.3396 70.8775 34.0767 70.9627 33.8213C71.0473 33.5676 71.0496 33.212 71.0496 32.9004C71.0496 32.775 70.9869 32.6361 70.8856 32.4326C70.8639 32.4076 70.8427 32.3839 70.826 32.3623C70.7966 32.3243 70.7733 32.2926 70.7459 32.2598C70.693 32.1962 70.6438 32.1517 70.5887 32.124L70.5711 32.1152L70.5545 32.1035C70.2802 31.9077 69.9595 31.8791 69.6033 31.957C69.2451 32.0354 68.8756 32.2169 68.533 32.4121L68.5311 32.4131C68.5265 32.4161 68.5198 32.4203 68.5115 32.4258C68.4946 32.437 68.4706 32.4536 68.4412 32.4727C68.3824 32.5108 68.3021 32.5619 68.2186 32.6133C68.136 32.6641 68.0465 32.7168 67.9695 32.7578C67.9315 32.7781 67.8922 32.7983 67.8563 32.8135C67.8384 32.821 67.8173 32.8285 67.7957 32.835C67.7774 32.8404 67.7419 32.8506 67.7 32.8506H67.45V23.4502H68.8504Z" fill="#020202" stroke="#020202" stroke-width="0.5"/>
<path d="M76.6502 22.8501V24.1157L76.4363 24.1479H76.4334C76.4315 24.1482 76.4284 24.1484 76.4246 24.1489C76.4169 24.1501 76.4053 24.1516 76.3904 24.1538C76.3604 24.1582 76.3157 24.1651 76.2596 24.1733C76.1473 24.1897 75.9866 24.2136 75.7938 24.2417C75.4078 24.298 74.8917 24.3727 74.3729 24.4478C73.8542 24.5227 73.3322 24.5975 72.9334 24.6538C72.7341 24.682 72.5647 24.7057 72.4422 24.7222C72.3814 24.7304 72.3315 24.7371 72.2947 24.7417C72.269 24.7449 72.226 24.7505 72.2 24.7505H71.95V23.4839L72.1639 23.4526L76.2635 22.853L76.282 22.8501H76.6502Z" fill="#020202" stroke="#020202" stroke-width="0.5"/>
<path d="M63.8502 24.8501V26.1157L63.6364 26.1479H63.6334C63.6315 26.1482 63.6284 26.1484 63.6246 26.1489C63.6169 26.1501 63.6053 26.1516 63.5905 26.1538C63.5604 26.1582 63.5158 26.1651 63.4596 26.1733C63.3473 26.1897 63.1867 26.2136 62.9938 26.2417C62.6078 26.298 62.0917 26.3727 61.5729 26.4478C61.0542 26.5227 60.5322 26.5975 60.1334 26.6538C59.9341 26.682 59.7647 26.7057 59.6422 26.7222C59.5815 26.7304 59.5315 26.7371 59.4948 26.7417C59.469 26.7449 59.426 26.7505 59.4 26.7505H59.15V25.4839L59.3639 25.4526L63.4635 24.853L63.4821 24.8501H63.8502Z" fill="#020202" stroke="#020202" stroke-width="0.5"/>
<path d="M71.4 115.7C70.7 115.7 70 115.5 69.4 115.1C68.8 114.7 68.4 114.1 68.1 113.5L54.7 77.5C53.1 73.1 53.2 68.2001 55.2 63.9001C57.2 59.6001 60.7 56.3 65.1 54.6L76 50.5C76.4 50.3 76.9 50.3 77.3 50.3C77.8 50.3 78.2 50.4 78.6 50.6C79 50.8 79.4 51.0001 79.7 51.4001C80 51.7001 80.2 52.1 80.4 52.5L105.3 99.5C105.5 99.9001 105.5 100.4 105.5 100.8C105.5 101.3 105.4 101.7 105.2 102.1C105 102.5 104.7 102.9 104.4 103.2C104.1 103.5 103.7 103.8 103.3 103.9L72.5 115.4C72.1 115.5 71.7 115.6 71.3 115.6L71.4 115.7Z" fill="#9B6AF1"/>
<path d="M72.8 51.8001L97.5 84.8001L80.8 52.1001C80.7 51.7001 80.5 51.4001 80.2 51.1001C79.9 50.8001 79.6 50.6001 79.2 50.4001C78.8 50.2001 78.4 50.1001 78 50.1001C77.6 50.1001 77.2 50.1001 76.8 50.3001L72.8 51.8001Z" fill="#EBE8ED"/>
<path d="M111.9 76.9L67.8 74.1C67.1 74.1 66.4 73.9 65.8 73.6C65.2 73.3 64.6 72.9 64.2 72.3C63.7 71.8 63.4 71.2 63.2 70.5C63 69.8 62.9 69.1 62.9 68.4C62.9 67.7 63.1 67 63.4 66.4C63.7 65.8 64.1 65.2 64.7 64.8C65.2 64.3 65.8 64 66.5 63.8C67.2 63.6 67.9 63.5 68.6 63.5L112.7 66.3C113 66.3 113.3 66.4 113.6 66.5C113.9 66.6 114.2 66.8 114.4 67.1C114.6 67.3 114.8 67.6 114.9 67.9C115 68.2 115 68.5 115 68.9L114.6 74.5C114.6 75.2 114.3 75.8 113.8 76.2C113.3 76.6 112.7 76.9 112 76.8L111.9 76.9Z" fill="#EBE8ED"/>
<path d="M100.1 78.7C100.1 78.7 100 78.7 99.9 78.7L63.7 76.4C63.3 76.4 63 76.3 62.7 76.1C62.4 75.9 62.1 75.7 61.9 75.5C61.7 75.3 61.5 74.9 61.4 74.6C61.3 74.3 61.2 73.9 61.3 73.6L61.9 64C61.9 63.6 62 63.3 62.2 63C62.4 62.7 62.6 62.4 62.8 62.2C63.1 62 63.4 61.8 63.7 61.7C64 61.6 64.4 61.5 64.7 61.6L100.9 63.9C101.6 63.9 102.3 64.3 102.7 64.8C103.2 65.3 103.4 66 103.4 66.7L102.8 76.3C102.8 76.8 102.6 77.3 102.3 77.7C102 78.1 101.6 78.4 101.1 78.6C100.8 78.7 100.5 78.8 100.2 78.8L100.1 78.7Z" fill="#9B6AF1"/>
<path d="M74.25 10.4004C74.25 11.9321 73.9439 13.4683 73.3272 14.8047L73.3242 14.8115L73.3203 14.8184C72.6047 16.1474 71.5771 17.3847 70.2315 18.2129C68.8797 19.0447 67.3259 19.3525 65.6846 19.25C64.8702 19.1991 64.0274 19.0453 63.2129 18.9219C62.3898 18.7972 61.5869 18.7018 60.8155 18.75H60.7998C60.1716 18.7501 59.5264 19.0202 58.96 19.4922C58.7583 19.6602 58.5306 19.7196 58.3125 19.6709C58.1041 19.6243 57.9391 19.4869 57.8311 19.3291C57.6261 19.0295 57.5534 18.5174 57.9434 18.2051L57.9649 18.1885L57.9883 18.1768L58.167 18.0859C59.5424 16.94 61.1458 16.9014 62.7149 17.0771C63.1106 17.1215 63.5082 17.1793 63.9004 17.2383C64.294 17.2974 64.6822 17.3573 65.0664 17.4053C65.836 17.5013 66.5732 17.5476 67.2657 17.4521L67.2735 17.4512L67.5215 17.418C70.0691 17.0099 72.0908 14.5939 72.6563 12.1436C73.3277 9.16691 71.6956 6.0574 69.3448 4.19629L69.3428 4.19434C66.8119 2.15029 63.3877 1.55258 60.1289 1.84766C56.384 2.34119 53.0228 4.01936 49.9405 6.10742L49.9385 6.1084C46.9549 8.0975 44.2688 10.3856 41.7803 12.9736C39.5993 15.3539 37.7342 18.2089 37.1455 21.4404L37.1465 21.4414C36.6539 24.3976 37.0531 27.6273 38.7071 30.0596H38.7061C39.5754 31.3146 40.8367 32.288 42.2061 32.9736L42.7647 33.2285C43.8962 33.7337 45.0987 34.2172 46.2481 34.7871L46.8174 35.0791L46.8272 35.085L47.2491 35.3506C48.2277 36.0057 49.1564 36.9022 49.8116 37.9414C50.5586 39.1264 50.9581 40.5136 50.6455 41.9404L50.6465 41.9414C50.5356 42.6068 50.2019 43.1516 49.6768 43.6768C49.3127 44.0408 48.8154 43.9512 48.5215 43.7227C48.3718 43.6062 48.2476 43.4356 48.2129 43.2324C48.1771 43.022 48.2433 42.8087 48.4141 42.6328C49.2203 41.737 49.153 40.6563 48.7647 39.4873C48.1816 38.2316 47.3205 37.1923 46.0957 36.627L46.083 36.6211L46.0713 36.6143C45.3382 36.1744 44.5524 35.8301 43.7412 35.4932C42.9367 35.159 42.1021 34.8304 41.294 34.4268L41.0078 34.2871C39.5889 33.5661 38.3591 32.498 37.4014 31.2529L37.3985 31.248C35.45 28.5818 34.946 25.1108 35.3516 21.9678L35.3526 21.9639L35.4619 21.3193C36.0377 18.3286 37.5123 15.594 39.4014 13.3164L39.8125 12.835C42.0792 10.191 44.7846 7.90483 47.5938 5.89355L48.1563 5.49512C51.3708 3.18499 54.9052 1.2628 58.8555 0.553711H58.8565L59.5059 0.452148C62.768 0.00222854 66.2524 0.462055 69.0323 2.1875H69.0313C71.8883 3.92276 74.0442 6.99034 74.25 10.3848V10.4004Z" fill="#8B8B8B" stroke="#8B8B8B" stroke-width="0.5"/>
<path d="M282.5 228.6H0.500006C0.400006 228.6 0.300006 228.6 0.200006 228.5C0.200006 228.5 0.100006 228.3 0.100006 228.2C0.100006 228.1 0.100006 228 0.200006 227.9C0.200006 227.9 0.400006 227.8 0.500006 227.8H282.6C282.7 227.8 282.8 227.8 282.9 227.9C282.9 227.9 283 228.1 283 228.2C283 228.3 283 228.4 282.9 228.5C282.9 228.5 282.7 228.6 282.6 228.6H282.5Z" fill="#3F3D56"/>
<mask id="path-24-inside-1_15013_2663" fill="white">
<path d="M206 138.9L212.6 138.3C214.9 138.1 217 139.9 217 142.3V154.1C217 156.6 214.7 158.5 212.3 158L206 156.9"/>
</mask>
<path d="M212.6 138.3L212.47 136.806L212.464 136.806L212.6 138.3ZM212.3 158L212.606 156.532L212.582 156.527L212.558 156.522L212.3 158ZM206 138.9L206.136 140.394L212.736 139.794L212.6 138.3L212.464 136.806L205.864 137.406L206 138.9ZM212.6 138.3L212.73 139.794C214.194 139.667 215.5 140.819 215.5 142.3H217H218.5C218.5 138.981 215.606 136.533 212.47 136.806L212.6 138.3ZM217 142.3H215.5V154.1H217H218.5V142.3H217ZM217 154.1H215.5C215.5 155.678 214.046 156.832 212.606 156.532L212.3 158L211.994 159.469C215.354 160.169 218.5 157.522 218.5 154.1H217ZM212.3 158L212.558 156.522L206.258 155.422L206 156.9L205.742 158.378L212.042 159.478L212.3 158Z" fill="#EBE8ED" mask="url(#path-24-inside-1_15013_2663)"/>
</g>
<defs>
<linearGradient id="paint0_linear_15013_2663" x1="134.1" y1="228.4" x2="134.1" y2="74.9" gradientUnits="userSpaceOnUse">
<stop stop-color="#3D3C3E"/>
<stop offset="1"/>
</linearGradient>
<clipPath id="clip0_15013_2663">
<rect width="283" height="229" fill="white"/>
</clipPath>
</defs>
</svg>
