<svg width="364" height="256" viewBox="0 0 364 256" fill="none" xmlns="http://www.w3.org/2000/svg">
<path d="M334.946 255.427L336.039 255.405C335.616 243.251 334.319 231.143 332.158 219.175C327.431 193.552 319.571 176.724 308.797 169.158L308.169 170.053C333.339 187.725 334.933 254.751 334.946 255.427Z" fill="#2F2E41"/>
<path d="M321.281 255.165L322.375 255.144C322.351 253.933 321.668 225.403 310.436 217.517L309.808 218.412C320.587 225.979 321.276 254.874 321.281 255.165Z" fill="#2F2E41"/>
<path d="M301.95 170.152C304.969 170.152 307.416 167.705 307.416 164.686C307.416 161.668 304.969 159.221 301.95 159.221C298.931 159.221 296.484 161.668 296.484 164.686C296.484 167.705 298.931 170.152 301.95 170.152Z" fill="#9B6AF1"/>
<path d="M304.657 217.156C307.675 217.156 310.122 214.709 310.122 211.691C310.122 208.672 307.675 206.225 304.657 206.225C301.638 206.225 299.191 208.672 299.191 211.691C299.191 214.709 301.638 217.156 304.657 217.156Z" fill="#9B6AF1"/>
<path d="M323.829 173.428C322.802 179.989 325.479 185.857 325.479 185.857C325.479 185.857 329.822 181.088 330.849 174.527C331.876 167.966 329.199 162.098 329.199 162.098C329.199 162.098 324.856 166.867 323.829 173.428Z" fill="#2F2E41"/>
<path d="M305.964 189.363C312.245 191.517 318.49 189.904 318.49 189.904C318.49 189.904 314.551 184.796 308.269 182.642C301.987 180.487 295.742 182.101 295.742 182.101C295.742 182.101 299.682 187.208 305.964 189.363Z" fill="#2F2E41"/>
<path d="M305.762 230.989C308.605 231.882 311.633 232.013 314.542 231.369C312.695 229.017 310.207 227.249 307.378 226.279C304.549 225.308 301.5 225.177 298.598 225.9C300.499 228.194 302.969 229.949 305.762 230.989Z" fill="#2F2E41"/>
<path d="M116.169 45.0818C117.376 44.8041 119.451 45.0411 122.723 47.4617L123.394 47.9753C127.082 50.8965 131.878 55.6052 135.765 59.5984C137.705 61.5919 139.414 63.4018 140.638 64.7136C141.25 65.3695 141.741 65.9013 142.078 66.2683C142.247 66.4515 142.377 66.5937 142.465 66.6902C142.509 66.7384 142.543 66.7759 142.566 66.8005C142.576 66.8125 142.584 66.8218 142.59 66.8279L142.599 66.8367L142.969 66.5007L142.599 66.8376L142.659 66.9031L142.738 66.9451L177.977 85.2683L178.171 85.3699L178.377 85.2947C179.199 84.9973 180.08 84.9095 180.941 85.0359L181.309 85.1033C182.162 85.2911 182.953 85.6877 183.613 86.2546L183.888 86.5076C184.509 87.1225 184.966 87.8808 185.221 88.7126L185.318 89.074C185.514 89.9257 185.495 90.8108 185.266 91.6501L185.154 92.0066C184.865 92.8312 184.376 93.5693 183.734 94.156L183.448 94.3982C182.763 94.9403 181.955 95.3024 181.099 95.4548L180.729 95.5076C179.86 95.5994 178.983 95.4733 178.178 95.1443L177.837 94.991C176.942 94.5488 176.19 93.8618 175.669 93.0095L175.582 92.866L175.425 92.8044L139.064 78.5623L118.78 61.3855L111.458 51.2029L114.413 46.2781L114.42 46.2664L114.425 46.2585C114.425 46.2584 114.425 46.2577 114.426 46.2566C114.428 46.2532 114.431 46.2453 114.438 46.2351C114.45 46.2146 114.472 46.1819 114.503 46.1394C114.565 46.0542 114.663 45.9326 114.802 45.8005C115.08 45.5373 115.521 45.231 116.169 45.0818Z" stroke="#020202"/>
<path d="M77.8384 55.1628C78.0304 55.1578 78.1858 55.1744 78.2896 55.1912C78.3411 55.1995 78.3795 55.208 78.4028 55.2136L78.4263 55.2195V55.2185L78.438 55.2224L78.4507 55.2263L84.022 56.6189L86.0454 68.9958L83.8491 95.4832L68.2085 131.266L68.1401 131.422L68.1802 131.586C68.3886 132.438 68.3819 133.326 68.1626 134.172L68.0552 134.531C67.7753 135.362 67.2942 136.109 66.6567 136.706L66.3735 136.953C65.6923 137.505 64.8857 137.878 64.0278 138.041L63.6577 138.098C62.662 138.215 61.6532 138.046 60.7495 137.612C59.9589 137.232 59.2771 136.663 58.7632 135.957L58.5532 135.646C58.0886 134.902 57.8168 134.057 57.7603 133.185L57.7495 132.81C57.755 131.933 57.9784 131.073 58.397 130.306L58.5884 129.984C59.13 129.141 59.9002 128.468 60.8091 128.046L61.0093 127.952L61.0747 127.742L73.0356 89.8679L73.062 89.783L73.0581 89.6931V89.6902C73.058 89.6882 73.0573 89.6852 73.0571 89.6814C73.0567 89.673 73.0569 89.66 73.0562 89.6433C73.0546 89.61 73.0523 89.56 73.0493 89.4949C73.0434 89.3643 73.0344 89.1714 73.0239 88.9226C73.0029 88.4245 72.974 87.7018 72.9429 86.8054C72.8806 85.0126 72.8095 82.5245 72.772 79.7429C72.7015 74.5192 72.7512 68.2851 73.2046 63.6755L73.3013 62.7751C73.8397 58.1358 75.2431 56.3229 76.3628 55.6218C76.927 55.2687 77.4558 55.173 77.8384 55.1628Z" stroke="#020202"/>
<path d="M142.54 247.592H135.774L135.773 218.86H146.084L142.54 247.592Z" stroke="#DEE9EA"/>
<path d="M133.308 245.576L148.489 245.575H148.489C151.055 245.576 153.516 246.595 155.33 248.409C157.144 250.223 158.163 252.684 158.164 255.25V255.564L133.308 255.565L133.308 245.576Z" fill="#2F2E41"/>
<path d="M58.4636 247.592H51.696V218.86H62.0075L58.4636 247.592Z" stroke="#DEE9EA"/>
<path d="M49.2309 245.576L64.4117 245.575H64.4123C66.9781 245.576 69.4387 246.595 71.253 248.409C73.0672 250.223 74.0866 252.684 74.0867 255.25V255.564L49.2313 255.565L49.2309 245.576Z" fill="#2F2E41"/>
<path d="M89.2525 43.4809L76.4669 54.3954L86.9597 87.6005L89.3273 95.0153C89.3273 95.0153 74.8706 108.344 65.9258 145.579C56.9809 182.813 42.348 232.289 42.348 232.289L73.2354 241.131L98.3643 156.902L127.922 222.982L131.334 242.527L157.638 234.771L151.433 185.754L120.41 100.905L123.633 78.4133C123.633 78.4133 128.472 67.1868 120.065 55.3009L117.428 44.1325L107.982 41.8058L89.2525 43.4809Z" fill="#2F2E41"/>
<path d="M93.2094 0.5C98.2107 0.500013 103.013 2.42507 106.627 5.86426L106.974 6.20117C110.625 9.85171 112.675 14.8032 112.675 19.9658V34.8652L112.664 35.0811C112.621 35.5091 112.453 35.9153 112.18 36.248L112.036 36.4072C111.626 36.8164 111.071 37.0472 110.493 37.0479H75.9262C75.4199 37.0473 74.9316 36.8709 74.5434 36.5527L74.3832 36.4072C73.9743 35.9981 73.7443 35.4436 73.7436 34.8652V19.9658L73.7495 19.4824C73.8692 14.6558 75.7796 10.0454 79.1078 6.54785L79.4448 6.20117C83.0953 2.55063 88.0468 0.5 93.2094 0.5Z" stroke="#020202"/>
<path d="M110.157 29.5836C114.034 22.4899 111.427 13.5957 104.334 9.71791C97.2398 5.84012 88.3456 8.44716 84.4678 15.5409C80.59 22.6346 83.1971 31.5288 90.2908 35.4066C97.3846 39.2844 106.279 36.6774 110.157 29.5836Z" fill="#D8E373"/>
<path d="M103.019 21.645L103.078 26.2915C103.552 26.1058 104.028 26.1073 104.422 26.3315L104.511 26.3872L104.513 26.3882L104.641 26.4897C104.762 26.5987 104.865 26.7295 104.945 26.8765L105.017 27.0278C105.08 27.1824 105.12 27.3478 105.133 27.5171L105.143 27.7485C105.142 27.903 105.125 28.0569 105.094 28.2075L105.035 28.4312C104.943 28.7243 104.794 28.9928 104.597 29.2173L104.481 29.3335C104.214 29.5869 103.905 29.7841 103.57 29.9136L103.569 29.9146C103.148 30.0741 102.714 30.1911 102.273 30.2651L102.124 30.2905L102.1 30.1421L102.021 29.6597L101.998 29.5171L102.14 29.4888L102.439 29.4263C103.119 29.278 103.673 29.0942 104.061 28.6694C104.181 28.5298 104.273 28.3624 104.331 28.1782L104.368 28.0376C104.398 27.8947 104.406 27.7469 104.394 27.6001V27.5962C104.388 27.5127 104.37 27.4314 104.34 27.356L104.306 27.2827C104.256 27.1893 104.189 27.1107 104.11 27.0522L104.05 27.0161C103.904 26.941 103.73 26.9313 103.543 26.9722C103.382 27.0073 103.219 27.079 103.069 27.1685L102.925 27.2632L102.588 27.5073L102.354 27.6772L102.35 27.3882L102.276 21.6558L102.275 21.5063L102.424 21.5044L102.866 21.4966L103.017 21.4946L103.019 21.645Z" fill="#020202" stroke="#020202" stroke-width="0.3"/>
<path d="M110.684 22.4171L110.837 23.4251L106.71 24.0501L106.557 23.042L110.684 22.4171Z" fill="#020202" stroke="#020202" stroke-width="0.3"/>
<path d="M90.8571 22.4171L90.7044 23.4251L94.8312 24.0501L94.9838 23.042L90.8571 22.4171Z" fill="#020202" stroke="#020202" stroke-width="0.3"/>
<path d="M99.1249 5.86389H102.104C106.033 5.86839 109.804 7.38213 112.643 10.0836L112.914 10.3483C115.733 13.1677 117.338 16.9741 117.395 20.9557H97.2265L97.0429 18.3854L96.0742 18.2526L95.1083 20.9557H92.6718L92.2753 15.4059L91.3056 15.2731L89.2763 20.9557H83.8339C83.8892 17.1007 85.3959 13.4105 88.0507 10.6207L88.3154 10.3483C91.0931 7.57053 94.8286 5.97014 98.746 5.86877L99.1249 5.86389Z" stroke="#020202"/>
<path d="M192.628 83.0343C195.921 81.9652 199.503 82.1979 202.635 83.6935L202.936 83.8419C206.022 85.4107 208.394 88.1056 209.554 91.3761V91.3771L232.856 157.284L232.963 157.602C233.998 160.788 233.813 164.246 232.445 167.304L232.304 167.609C230.808 170.74 228.169 173.173 224.936 174.411L224.62 174.527L88.9739 222.486C85.5952 223.677 81.8822 223.478 78.6497 221.935C75.518 220.439 73.0851 217.799 71.847 214.566L71.7308 214.251L48.429 148.344C47.2387 144.965 47.4371 141.252 48.9808 138.02L49.1292 137.719C50.698 134.633 53.3929 132.261 56.6634 131.101H56.6644L192.31 83.1417H192.311L192.628 83.0343Z" fill="white" stroke="#020202" stroke-width="0.2"/>
<path d="M232.762 157.317L232.885 157.666C234.017 160.869 233.83 164.39 232.365 167.456C230.901 170.521 228.279 172.879 225.076 174.01L88.7512 222.209C85.5489 223.341 82.0283 223.155 78.9635 221.691C75.8987 220.227 73.5408 217.606 72.4083 214.404L72.285 214.055L232.762 157.317Z" fill="#F2F2F2"/>
<path d="M80.4757 146.497C71.4844 152.413 59.9608 147.961 55.9307 141.475L56.5732 141.11C64.2278 136.339 75.5955 138.997 80.4757 146.497Z" fill="#D8E373"/>
<path d="M202.48 130.301C204.535 129.662 206.402 129.741 208.029 130.548L208.391 130.742C210.166 131.762 211.489 133.584 212.54 135.683C213.662 137.923 214.481 140.494 215.209 142.776L215.832 144.698C215.934 145.002 216.035 145.297 216.137 145.58L216.441 146.388L216.443 146.392L216.568 146.781C217.107 148.606 217.001 150.562 216.268 152.319L216.101 152.692C215.22 154.542 213.688 155.996 211.806 156.78L211.425 156.927L193.183 163.377C191.102 164.113 189.204 164.131 187.544 163.419L187.215 163.266C185.256 162.293 183.826 160.368 182.705 158.129C181.864 156.448 181.193 154.58 180.603 152.789L180.037 151.032C179.613 149.702 179.214 148.45 178.808 147.427V147.425L178.803 147.41L178.802 147.408C178.084 145.347 178.209 143.086 179.149 141.117L179.334 140.753C180.3 138.96 181.896 137.582 183.821 136.889H183.822L202.067 130.438L202.48 130.301ZM207.579 131.456C206.179 130.761 204.607 130.695 202.775 131.27L202.405 131.393L184.161 137.843C182.473 138.451 181.074 139.659 180.226 141.23L180.063 141.549C179.239 143.274 179.128 145.255 179.754 147.061L180.065 147.89C180.375 148.755 180.683 149.721 181.003 150.725L181.55 152.424C182.118 154.154 182.76 155.948 183.551 157.554C184.606 159.698 185.92 161.492 187.666 162.359L187.948 162.49C189.373 163.102 190.976 163.084 192.846 162.422L211.085 155.973L211.419 155.844C213.069 155.158 214.413 153.885 215.186 152.264L215.333 151.937C216.022 150.29 216.082 148.442 215.494 146.747L215.184 145.923C214.978 145.349 214.771 144.727 214.561 144.077L214.244 143.084C213.539 140.871 212.749 138.397 211.694 136.256C210.704 134.248 209.488 132.547 207.901 131.629L207.579 131.456Z" fill="#3F3D56" stroke="#020202" stroke-width="0.2"/>
<path d="M76.6942 148.627C73.4881 149.739 70.0343 149.929 66.7257 149.175C61.8937 148.114 57.5085 145.229 55.2816 141.647L55.0583 141.287L56.0612 140.717C63.831 135.878 75.482 138.502 80.5111 146.228L80.7316 146.567L80.3939 146.789C79.2397 147.549 77.9974 148.167 76.6942 148.627ZM56.2018 141.573C58.3812 144.811 62.4366 147.401 66.9 148.381C71.2387 149.395 75.802 148.658 79.6017 146.332C74.6824 139.216 63.7834 136.855 56.4844 141.412L56.2018 141.573Z" fill="#3F3D56"/>
<path d="M100.871 173.055C102.04 172.571 103.321 172.418 104.571 172.615L104.804 172.656C105.891 172.866 106.911 173.335 107.778 174.022L107.961 174.173L107.962 174.174L108.166 174.357C109.169 175.293 109.932 176.459 110.39 177.755L110.478 178.015C110.893 179.322 110.988 180.711 110.752 182.065V182.067C110.264 184.614 108.542 186.489 105.93 187.384L105.931 187.385L81.6208 195.978L81.6218 195.979C81.58 195.995 81.5374 196.009 81.4958 196.023L81.4968 196.024C80.413 196.453 79.2387 196.598 78.0856 196.446L77.8552 196.412C76.6288 196.208 75.4808 195.675 74.5349 194.868L74.5339 194.867C73.499 193.963 72.699 192.823 72.1999 191.545L72.1042 191.287C71.615 189.905 71.4897 188.42 71.7409 186.975V186.974L71.7888 186.741C72.0479 185.583 72.6029 184.511 73.4011 183.63C74.2526 182.69 75.3486 182.003 76.5661 181.647L100.871 173.055ZM104.395 173.619C103.321 173.453 102.222 173.586 101.219 174.005L101.215 174.008L101.18 173.913L101.214 174.008L76.8903 182.607H76.8884C76.8514 182.62 76.8143 182.633 76.778 182.645L76.7731 182.646L76.7741 182.647C76.7606 182.652 76.7475 182.657 76.7341 182.661L76.5446 182.728L76.5456 182.725C75.7435 183.01 75.0121 183.462 74.404 184.056L74.1286 184.345C73.4172 185.14 72.9353 186.114 72.736 187.163C72.5155 188.432 72.6257 189.736 73.0554 190.95L73.1393 191.177C73.5779 192.3 74.2816 193.302 75.1911 194.097H75.1901C76.0185 194.798 77.0254 195.256 78.0983 195.421C79.1718 195.586 80.2702 195.45 81.2712 195.029L81.277 195.026L105.599 186.428L105.605 186.426L105.991 186.3C106.881 185.975 107.682 185.44 108.323 184.737L108.586 184.428C109.174 183.686 109.577 182.811 109.757 181.877C109.964 180.688 109.88 179.467 109.515 178.319L109.439 178.091C109.01 176.877 108.275 175.793 107.306 174.945L106.987 174.693C106.333 174.213 105.586 173.874 104.795 173.695L104.395 173.619Z" fill="#3F3D56" stroke="#020202" stroke-width="0.2"/>
<path d="M193.313 143.891L185.649 146.601C185.141 146.78 184.582 146.751 184.096 146.518C183.609 146.286 183.235 145.87 183.056 145.362C182.876 144.854 182.906 144.295 183.138 143.809C183.37 143.323 183.786 142.948 184.294 142.769L191.958 140.059C192.466 139.88 193.025 139.909 193.511 140.141C193.997 140.374 194.371 140.79 194.551 141.298C194.731 141.806 194.701 142.365 194.469 142.851C194.237 143.337 193.821 143.711 193.313 143.891Z" fill="#9B6AF1"/>
<path d="M195.48 150.022L187.816 152.731C187.308 152.911 186.75 152.881 186.263 152.649C185.777 152.417 185.403 152.001 185.223 151.493C185.044 150.985 185.073 150.426 185.305 149.94C185.538 149.453 185.954 149.079 186.462 148.9L194.125 146.19C194.633 146.01 195.192 146.04 195.678 146.272C196.165 146.504 196.539 146.92 196.719 147.428C196.898 147.937 196.869 148.495 196.636 148.982C196.404 149.468 195.988 149.842 195.48 150.022Z" fill="#9B6AF1"/>
<path d="M197.648 156.153L189.984 158.862C189.733 158.951 189.466 158.99 189.199 158.976C188.933 158.962 188.672 158.895 188.431 158.78C188.19 158.665 187.974 158.504 187.796 158.306C187.618 158.107 187.48 157.875 187.391 157.624C187.302 157.372 187.263 157.106 187.277 156.839C187.292 156.573 187.358 156.312 187.473 156.071C187.588 155.83 187.749 155.614 187.948 155.436C188.146 155.257 188.378 155.12 188.629 155.031L196.293 152.321C196.545 152.232 196.811 152.194 197.078 152.208C197.344 152.222 197.605 152.288 197.846 152.403C198.087 152.518 198.303 152.68 198.481 152.878C198.66 153.076 198.797 153.308 198.886 153.56C198.975 153.811 199.014 154.078 199 154.344C198.986 154.611 198.919 154.872 198.804 155.113C198.689 155.354 198.528 155.569 198.329 155.748C198.131 155.926 197.899 156.064 197.648 156.153Z" fill="#9B6AF1"/>
<path d="M206.724 139.15L199.06 141.859C198.809 141.948 198.542 141.987 198.276 141.973C198.009 141.958 197.748 141.892 197.507 141.777C197.266 141.662 197.051 141.501 196.872 141.302C196.694 141.104 196.556 140.872 196.467 140.621C196.378 140.369 196.34 140.102 196.354 139.836C196.368 139.569 196.434 139.308 196.549 139.067C196.664 138.827 196.825 138.611 197.024 138.432C197.222 138.254 197.454 138.116 197.706 138.027L205.369 135.318C205.877 135.138 206.436 135.168 206.922 135.4C207.409 135.632 207.783 136.048 207.962 136.556C208.142 137.064 208.113 137.623 207.88 138.109C207.648 138.596 207.232 138.97 206.724 139.15Z" fill="#9B6AF1"/>
<path d="M208.892 145.28L201.228 147.99C200.976 148.079 200.71 148.117 200.443 148.103C200.177 148.089 199.916 148.023 199.675 147.908C199.434 147.793 199.218 147.631 199.04 147.433C198.861 147.235 198.724 147.003 198.635 146.751C198.546 146.5 198.507 146.233 198.521 145.967C198.535 145.7 198.602 145.439 198.717 145.198C198.832 144.957 198.993 144.742 199.192 144.563C199.39 144.385 199.622 144.247 199.873 144.158L207.537 141.449C207.788 141.36 208.055 141.321 208.322 141.335C208.588 141.349 208.849 141.416 209.09 141.531C209.331 141.646 209.547 141.807 209.725 142.006C209.903 142.204 210.041 142.436 210.13 142.687C210.219 142.939 210.258 143.205 210.243 143.472C210.229 143.738 210.163 143.999 210.048 144.24C209.933 144.481 209.772 144.697 209.573 144.875C209.375 145.054 209.143 145.191 208.892 145.28Z" fill="#9B6AF1"/>
<path d="M211.059 151.411L203.396 154.121C202.887 154.301 202.329 154.271 201.842 154.039C201.356 153.806 200.982 153.39 200.802 152.882C200.623 152.374 200.652 151.816 200.884 151.329C201.117 150.843 201.533 150.469 202.041 150.289L209.704 147.579C209.956 147.491 210.223 147.452 210.489 147.466C210.756 147.48 211.017 147.547 211.258 147.662C211.498 147.777 211.714 147.938 211.893 148.136C212.071 148.335 212.209 148.566 212.298 148.818C212.387 149.07 212.425 149.336 212.411 149.603C212.397 149.869 212.331 150.13 212.216 150.371C212.101 150.612 211.939 150.828 211.741 151.006C211.542 151.185 211.311 151.322 211.059 151.411Z" fill="#9B6AF1"/>
<path d="M214.594 105.629L214.932 106.584L54.2667 163.389L53.9291 162.434L214.594 105.629Z" fill="#3F3D56" stroke="#020202" stroke-width="0.2"/>
<path d="M224.587 174.433L88.9409 222.392C85.587 223.574 81.9015 223.376 78.6927 221.844C75.484 220.312 73.0142 217.569 71.8251 214.218L48.523 148.31C47.3414 144.957 47.5385 141.271 49.071 138.062C50.6034 134.854 53.3461 132.384 56.6972 131.195L192.344 83.2357C195.697 82.0542 199.383 82.2512 202.592 83.7837C205.8 85.3161 208.27 88.0588 209.459 91.4099L232.762 157.317C233.943 160.671 233.746 164.357 232.214 167.565C230.681 170.774 227.938 173.244 224.587 174.433ZM56.9682 131.961C53.8201 133.078 51.2437 135.398 49.8041 138.412C48.3646 141.427 48.1794 144.889 49.2893 148.04L72.5915 213.947C73.7085 217.095 76.0287 219.671 79.0429 221.111C82.0571 222.55 85.5193 222.736 88.6699 221.626L224.316 173.667C227.464 172.55 230.041 170.229 231.48 167.215C232.92 164.201 233.105 160.739 231.995 157.588L208.693 91.6809C207.576 88.5328 205.256 85.9564 202.242 84.5168C199.227 83.0773 195.765 82.8921 192.615 84.002L56.9682 131.961Z" fill="#3F3D56"/>
<path d="M363.324 256H1.01357C0.883194 256 0.758153 255.95 0.665959 255.862C0.573766 255.774 0.521973 255.654 0.521973 255.529C0.521973 255.404 0.573766 255.285 0.665959 255.197C0.758153 255.108 0.883194 255.059 1.01357 255.059H363.324C363.455 255.059 363.58 255.108 363.672 255.197C363.764 255.285 363.816 255.404 363.816 255.529C363.816 255.654 363.764 255.774 363.672 255.862C363.58 255.95 363.455 256 363.324 256Z" fill="#444444"/>
</svg>
