<svg width="67" height="66" viewBox="0 0 67 66" fill="none" xmlns="http://www.w3.org/2000/svg">
<path d="M55.5 44V19.25C55.5 17.7913 54.9205 16.3924 53.8891 15.3609C52.8576 14.3295 51.4587 13.75 50 13.75H17C15.5413 13.75 14.1424 14.3295 13.1109 15.3609C12.0795 16.3924 11.5 17.7913 11.5 19.25V44M55.5 44H11.5M55.5 44L59.02 51.0125C59.232 51.4332 59.3324 51.9013 59.3115 52.372C59.2906 52.8426 59.1492 53.3 58.9007 53.7003C58.6523 54.1006 58.3052 54.4303 57.8927 54.6579C57.4802 54.8855 57.0161 55.0033 56.545 55H10.455C9.98389 55.0033 9.51984 54.8855 9.10734 54.6579C8.69484 54.4303 8.34773 54.1006 8.09928 53.7003C7.85083 53.3 7.70938 52.8426 7.6885 52.372C7.66761 51.9013 7.76798 51.4332 7.98 51.0125L11.5 44" stroke="black" stroke-width="2" stroke-linecap="round" stroke-linejoin="round"/>
</svg>
